<?xml version="1.0" encoding="UTF-8"?>
<svg xmlns="http://www.w3.org/2000/svg" xmlns:xlink="http://www.w3.org/1999/xlink" viewBox="0 0 1920 1261.18">
  <defs>
    <style>
      .cls-1, .cls-2, .cls-3 {
        fill: none;
      }

      .cls-2 {
        isolation: isolate;
      }

      .cls-4 {
        fill: #6a66d9;
      }

      .cls-5, .cls-6 {
        fill: #ecb048;
      }

      .cls-7, .cls-8 {
        fill: #f5dbe9;
      }

      .cls-9, .cls-10 {
        fill: #e48323;
      }

      .cls-11, .cls-12 {
        fill: #e58f8c;
      }

      .cls-13 {
        fill: #c2c9f2;
      }

      .cls-14, .cls-15 {
        fill: #aea3fc;
      }

      .cls-16 {
        fill: #d98162;
      }

      .cls-17, .cls-18 {
        fill: #ddd9fe;
      }

      .cls-19 {
        fill: #1c1c1c;
      }

      .cls-20, .cls-21 {
        fill: #7b6fc8;
      }

      .cls-22 {
        fill: #9d4e1d;
      }

      .cls-22, .cls-18, .cls-15, .cls-12, .cls-6, .cls-10, .cls-8, .cls-21 {
        mix-blend-mode: multiply;
        opacity: .4;
      }

      .cls-3 {
        clip-path: url(#clippath);
      }
    </style>
    <clipPath id="clippath">
      <rect class="cls-1" width="1920" height="1080"/>
    </clipPath>
  </defs>
  <g class="cls-2">
    <g id="OBJECTS">
      <path class="cls-13" d="m1902.94,468.79c-14.98,31.65-17.44,67.69-22.01,101.89-4.19,31.28-9.63,63.92-28.54,90.07-25.43,35.18-64.47,58.78-85.98,96.9-14.44,25.59-19.69,54.22-22.51,83.13-2.64,27.06-3.81,55.53-14.25,81.02-13.44,32.82-40.02,56.27-75.43,61.43-77.44,11.28-150.28-39.39-228.03-25.28-41.72,7.57-78.82,29-118.02,44.02-19.43,7.45-39.52,13.26-60.27,15.38-23.65,2.41-46.39-.88-69.33-6.56-49.69-12.3-99.21-29.21-150.82-30.68-27.49-.79-54.83,2.96-81.38,10-28.35,7.51-54.56,19.9-81.52,31.15-24.06,10.04-49.46,19.4-75.86,19.58-21.66.15-41.87-6.25-60.99-16.08-22.66-11.64-44.16-24.98-67.58-35.19-25.92-11.3-54.03-14.56-82.08-12.46-53.66,4.02-105.49,23.42-159.8,20.52-47.76-2.55-96.77-22.86-126.67-61.1-29.72-38.02-46.15-84.91-90.14-109.93-20.37-11.58-43.06-18.33-63.4-29.94-19.53-11.14-35.21-27.37-45.38-47.49-11.62-23-14.56-48.84-18.11-74.02-3.05-21.71-7.28-43.31-13.97-64.23-10.26-32.05-28.56-66.75-60.88-76.65v545.71h1920V443.06c-6.95,7.93-12.77,16.67-17.06,25.73Z"/>
      <g>
        <path class="cls-9" d="m1558.85,866.39c4.18,3.57,6.19,9.51,5.02,14.89-.8,3.7-3.73,7.43-7.51,7.23-3.7-.2-6.15-3.97-7.16-7.53-.9-3.14-1.13-6.63.22-9.61,1.35-2.99,4.59-5.26,7.82-4.71l1.62-.26Z"/>
        <path class="cls-9" d="m1576.16,911.32c4.71,3.85,9.91,8.91,8.91,14.91-.81,4.93-5.69,8.21-10.51,9.5-4.82,1.29-9.95,1.19-14.76,2.55l-.02.12c-10.38-2.11-16.24,16.65-26.62,14.46-3.67-.78-6.31-4.24-7.19-7.89s-.33-7.48.29-11.19c.94-5.5,2.07-10.97,3.39-16.38,1.28-5.29,2.89-10.79,6.79-14.56,5.35-5.19,13.9-5.78,20.96-3.42,7.06,2.36,13,7.18,18.75,11.89Z"/>
        <path class="cls-9" d="m1522.75,872.05c2.41-1.54,6.21-.97,8.46,1.09,2.85,2.6,3.86,6.58,4.74,10.33.62,2.63,1.19,5.55-.16,7.88-2.11,3.65-7.88,3.41-11.04.61-3.16-2.81-4.35-7.16-5.41-11.25-.46-1.81-.92-3.72-.47-5.53.45-1.76,2.1-3.36,3.88-3.13Z"/>
        <path class="cls-9" d="m1499.52,895.38c-.04-1.99,1.82-3.89,3.87-4.26,2.36-.42,4.73.64,6.73,1.96,4.42,2.91,7.85,7.26,9.65,12.24.47,1.27.81,2.74.14,3.91s-2.1,1.65-3.41,1.85c-8.93,1.37-17.99-6.72-17.85-15.68h.86Z"/>
        <path class="cls-10" d="m1558.85,866.39l-1.62.26c-1.49-.25-2.98.12-4.29.86.33.16.65.34.97.53,3.04,1.8,4.51,5.28,4.27,8.71-.14,2.03-1.05,3.86-2.08,5.57-.98,1.64-2.32,3.03-3.68,4.37,1.09,1.03,2.4,1.73,3.93,1.82,3.77.2,6.71-3.53,7.51-7.23,1.17-5.37-.83-11.31-5.02-14.89Z"/>
        <path class="cls-10" d="m1576.16,911.32c-5.76-4.71-11.7-9.52-18.75-11.89-6.93-2.31-15.26-1.77-20.63,3.13,2.91-.75,5.74-1.12,7.97-1.1,9.7.11,23.28,4.49,28.92,12.87,3.34,4.97,2.6,11.08-1.19,15.57-4.56,5.42-11.99,5.77-18.53,6.2-3.33.22-7.7.02-10.6,1.93-2.42,1.6-3.88,4.88-5.39,7.27-1.64,2.59-3.57,5.33-5.98,7.2.38.15.78.28,1.19.37,10.38,2.19,16.24-16.57,26.62-14.46l.02-.12c4.81-1.36,9.94-1.27,14.76-2.55s9.7-4.57,10.51-9.5c1-6-4.2-11.06-8.91-14.91Z"/>
        <path class="cls-10" d="m1531.21,873.14c-1.33-1.21-3.19-1.89-4.99-1.94,4.54,5.39,4.72,14.06.26,19.91-.39.51-.82.9-1.27,1.22,3.23,2.45,8.56,2.51,10.58-.98,1.35-2.33.78-5.25.16-7.88-.88-3.75-1.89-7.73-4.74-10.33Z"/>
        <path class="cls-10" d="m1510.12,893.08c-.85-.56-1.76-1.06-2.71-1.43,1.68,1.93,3.03,4.29,4.01,6.85,2.48,2.88,4.1,6.5,4.59,10.38.1.76-.02,1.53-.27,2.27.25-.02.51-.03.76-.07,1.32-.21,2.75-.68,3.41-1.85.66-1.18.32-2.64-.14-3.91-1.8-4.98-5.24-9.32-9.65-12.24Z"/>
        <path class="cls-19" d="m1559.85,938.3c-3.49-.82-6.61.87-9.24,3.04-3.13,2.59-5.68,5.81-8.83,8.39-3.42,2.8-7.96,4.37-11.8,1.28-5.86-4.71-4.16-13.17-3-19.56.67-3.71,1.43-7.41,2.28-11.09.73-3.17,1.45-6.36,2.58-9.42,1.12-3.02,2.69-5.93,5.09-8.14,2.22-2.05,5.03-3.34,7.98-3.95,6.3-1.32,12.68.39,18.21,3.43,3,1.64,5.79,3.63,8.48,5.73,2.49,1.94,5.01,3.91,7.32,6.08,2.5,2.35,4.97,5.17,5.76,8.59.81,3.52-.63,6.9-3.28,9.23-5.98,5.26-14.46,4.12-21.65,6.15-.28.08-.16.51.12.44,6.82-1.78,14.57-.96,20.6-5.15,2.17-1.5,4-3.59,4.71-6.18.74-2.71.11-5.51-1.24-7.92-1.58-2.8-3.95-5.09-6.37-7.16-2.59-2.22-5.27-4.36-8.02-6.37-5.38-3.93-11.44-7.28-18.2-7.83-5.88-.48-12.08,1.18-16.06,5.75-4.48,5.15-5.72,12.51-7.14,18.96-.87,3.99-1.66,8.01-2.32,12.04-.58,3.59-1.02,7.37,0,10.92,1.33,4.63,5.47,8.56,10.54,7.63,4.02-.73,7.13-4.07,9.85-6.86,2.92-2.99,6.05-6.74,10.31-7.71,1.07-.24,2.17-.27,3.26-.1.15.02.22-.19.06-.23h0Z"/>
        <path class="cls-19" d="m1498.49,894.71c-.58,8.67,7.35,16.7,15.94,16.74,1.82,0,4.32-.21,5.48-1.83,1.28-1.78.19-4.23-.59-5.98-1.98-4.45-5.29-8.34-9.4-10.94-2.13-1.35-4.98-2.49-7.48-1.47-1.98.81-3.48,2.9-2.91,5.07.04.17.3.1.26-.07-.62-2.36,1.39-4.54,3.64-4.94,2.46-.44,4.89.83,6.86,2.16,3.5,2.38,6.36,5.7,8.24,9.5.91,1.84,2.56,5.04.71,6.8-1.39,1.32-3.89,1.37-5.69,1.24-3.78-.27-7.36-2.11-10.01-4.76-3.04-3.05-4.87-7.17-4.67-11.51.01-.25-.37-.24-.38,0h0Z"/>
        <path class="cls-19" d="m1522.92,871.99c-2.03-.29-3.72,1.24-4.23,3.14-.73,2.68.43,5.78,1.18,8.35,1.28,4.38,3.48,9.24,8.29,10.51,4.04,1.07,8.28-.85,8.64-5.34.21-2.66-.63-5.45-1.34-7.98-.67-2.42-1.59-4.85-3.24-6.78-2.66-3.1-8.73-4.39-11.09-.22-.04.08.07.15.12.07,2.1-3.42,7.16-2.83,9.82-.45,3.28,2.93,4.35,8.03,5.09,12.17.41,2.31.47,4.99-1.31,6.78-1.27,1.29-3.16,1.74-4.93,1.62-4.48-.3-7.25-3.9-8.76-7.81-.89-2.31-1.58-4.79-2.06-7.22-.3-1.52-.41-3.19.34-4.6.67-1.27,1.98-2.25,3.46-2.08.08,0,.1-.14.02-.15h0Z"/>
        <path class="cls-19" d="m1557.25,866.58c-3.87-.59-7.28,2.21-8.44,5.78-1.3,4.03-.35,9.1,1.94,12.62,1.9,2.93,5.33,4.81,8.69,3.02,3.42-1.82,4.92-5.99,4.96-9.66.05-4.6-1.96-9.06-5.44-12.06-.15-.13-.37.09-.22.22,5.19,4.59,7.55,13.87,2.56,19.48-2.65,2.97-6.64,2.98-9.28,0-2.45-2.78-3.53-6.99-3.33-10.62.24-4.45,3.59-9.26,8.55-8.63.09.01.11-.14.02-.15h0Z"/>
      </g>
      <g>
        <path class="cls-9" d="m430.84,950.73c4.18,3.57,6.19,9.51,5.02,14.89-.8,3.7-3.73,7.43-7.51,7.23-3.7-.2-6.15-3.97-7.16-7.53-.9-3.14-1.13-6.63.22-9.61,1.35-2.99,4.59-5.26,7.82-4.71l1.62-.26Z"/>
        <path class="cls-9" d="m448.15,995.65c4.71,3.85,9.91,8.91,8.91,14.91-.81,4.92-5.69,8.21-10.51,9.5s-9.95,1.19-14.76,2.55l-.02.12c-10.38-2.11-16.24,16.65-26.62,14.46-3.67-.78-6.31-4.24-7.19-7.89s-.33-7.48.29-11.19c.94-5.5,2.07-10.97,3.39-16.38,1.28-5.29,2.89-10.79,6.79-14.56,5.35-5.19,13.9-5.78,20.96-3.42,7.06,2.36,13,7.18,18.75,11.89Z"/>
        <path class="cls-9" d="m394.73,956.38c2.41-1.54,6.21-.97,8.46,1.09,2.85,2.6,3.86,6.58,4.74,10.33.62,2.63,1.19,5.55-.16,7.88-2.11,3.65-7.88,3.41-11.04.61s-4.35-7.16-5.41-11.25c-.46-1.81-.92-3.72-.47-5.53.45-1.76,2.1-3.36,3.88-3.13Z"/>
        <path class="cls-9" d="m371.51,979.72c-.04-1.99,1.82-3.89,3.87-4.26,2.36-.42,4.73.64,6.73,1.96,4.42,2.91,7.85,7.26,9.65,12.24.47,1.27.81,2.74.14,3.91-.66,1.18-2.1,1.65-3.41,1.85-8.93,1.37-17.99-6.72-17.85-15.68h.86Z"/>
        <path class="cls-10" d="m430.84,950.73l-1.62.26c-1.49-.25-2.98.12-4.29.86.33.16.65.34.97.53,3.04,1.8,4.51,5.28,4.27,8.71-.14,2.03-1.05,3.86-2.08,5.57-.98,1.64-2.32,3.03-3.68,4.37,1.09,1.03,2.4,1.73,3.93,1.82,3.77.2,6.71-3.53,7.51-7.23,1.17-5.37-.83-11.31-5.02-14.89Z"/>
        <path class="cls-10" d="m448.15,995.65c-5.76-4.71-11.7-9.52-18.75-11.89-6.93-2.31-15.26-1.77-20.63,3.13,2.91-.75,5.74-1.12,7.97-1.1,9.7.11,23.28,4.49,28.92,12.87,3.34,4.97,2.6,11.08-1.19,15.57-4.56,5.42-11.99,5.77-18.53,6.2-3.33.22-7.7.02-10.6,1.93-2.42,1.6-3.88,4.88-5.39,7.27-1.64,2.59-3.57,5.33-5.98,7.2.38.15.78.28,1.19.37,10.38,2.19,16.24-16.57,26.62-14.46l.02-.12c4.81-1.36,9.94-1.27,14.76-2.55,4.82-1.29,9.7-4.57,10.51-9.5,1-6-4.2-11.06-8.91-14.91Z"/>
        <path class="cls-10" d="m403.2,957.47c-1.33-1.21-3.19-1.89-4.99-1.94,4.54,5.39,4.72,14.06.26,19.91-.39.51-.82.9-1.27,1.22,3.23,2.45,8.56,2.51,10.58-.98,1.35-2.33.78-5.25.16-7.88-.88-3.75-1.89-7.73-4.74-10.33Z"/>
        <path class="cls-10" d="m382.11,977.41c-.85-.56-1.76-1.06-2.71-1.43,1.68,1.93,3.03,4.29,4.01,6.85,2.48,2.88,4.1,6.5,4.59,10.38.1.76-.02,1.53-.27,2.27.25-.02.51-.03.76-.07,1.32-.21,2.75-.68,3.41-1.85.66-1.18.32-2.64-.14-3.91-1.8-4.98-5.24-9.32-9.65-12.24Z"/>
        <path class="cls-19" d="m431.84,1022.63c-3.49-.82-6.61.87-9.24,3.04-3.13,2.59-5.68,5.81-8.83,8.39-3.42,2.8-7.96,4.37-11.8,1.28-5.86-4.71-4.16-13.17-3-19.56.67-3.71,1.43-7.41,2.28-11.09.73-3.17,1.45-6.36,2.58-9.42,1.12-3.02,2.69-5.93,5.09-8.14,2.22-2.05,5.03-3.34,7.98-3.95,6.29-1.32,12.68.39,18.21,3.43,3,1.64,5.79,3.63,8.48,5.73,2.49,1.94,5.01,3.91,7.32,6.08,2.5,2.35,4.97,5.17,5.76,8.59.81,3.52-.63,6.9-3.28,9.23-5.98,5.26-14.46,4.12-21.65,6.15-.28.08-.16.51.12.44,6.82-1.78,14.57-.96,20.6-5.15,2.17-1.5,4-3.59,4.71-6.18.74-2.71.11-5.51-1.24-7.92-1.58-2.8-3.95-5.09-6.37-7.16-2.59-2.22-5.27-4.36-8.02-6.37-5.38-3.93-11.44-7.28-18.2-7.83-5.88-.48-12.08,1.18-16.06,5.75-4.48,5.15-5.72,12.51-7.14,18.96-.87,3.99-1.66,8.01-2.32,12.04-.58,3.59-1.02,7.37,0,10.92,1.33,4.63,5.47,8.56,10.54,7.63,4.02-.73,7.13-4.07,9.85-6.86,2.92-2.99,6.05-6.74,10.31-7.71,1.07-.24,2.17-.27,3.26-.1.15.02.22-.19.06-.23h0Z"/>
        <path class="cls-19" d="m370.48,979.04c-.58,8.67,7.35,16.7,15.94,16.74,1.82,0,4.32-.21,5.48-1.83,1.28-1.78.19-4.23-.59-5.98-1.98-4.45-5.29-8.34-9.4-10.94-2.13-1.35-4.98-2.49-7.48-1.47-1.98.81-3.48,2.9-2.91,5.07.04.17.3.1.26-.07-.62-2.36,1.39-4.54,3.64-4.94,2.46-.44,4.89.83,6.86,2.16,3.5,2.38,6.36,5.7,8.23,9.5.91,1.84,2.56,5.04.71,6.8-1.39,1.32-3.89,1.37-5.69,1.25-3.78-.27-7.36-2.11-10.01-4.76-3.04-3.05-4.87-7.17-4.67-11.51.01-.25-.37-.24-.38,0h0Z"/>
        <path class="cls-19" d="m394.91,956.32c-2.03-.29-3.72,1.24-4.23,3.14-.73,2.68.43,5.78,1.18,8.35,1.28,4.38,3.48,9.24,8.29,10.51,4.04,1.07,8.28-.85,8.64-5.34.21-2.66-.63-5.45-1.34-7.98-.67-2.42-1.59-4.85-3.24-6.78-2.66-3.1-8.73-4.39-11.09-.22-.04.08.07.15.12.07,2.1-3.42,7.16-2.83,9.82-.45,3.28,2.93,4.35,8.03,5.09,12.17.41,2.31.47,4.99-1.31,6.78-1.27,1.29-3.16,1.74-4.93,1.62-4.48-.3-7.25-3.9-8.76-7.81-.89-2.31-1.58-4.79-2.06-7.22-.3-1.52-.41-3.19.34-4.6.67-1.27,1.98-2.25,3.46-2.08.08,0,.1-.14.02-.15h0Z"/>
        <path class="cls-19" d="m429.24,950.91c-3.87-.59-7.28,2.21-8.44,5.78-1.3,4.03-.35,9.1,1.94,12.62,1.9,2.93,5.33,4.81,8.69,3.02,3.42-1.82,4.92-5.99,4.96-9.66.05-4.6-1.96-9.06-5.44-12.06-.15-.13-.37.09-.22.22,5.19,4.59,7.55,13.87,2.56,19.48-2.65,2.97-6.64,2.98-9.28,0-2.45-2.78-3.53-6.99-3.33-10.62.24-4.45,3.59-9.26,8.55-8.63.09.01.11-.14.02-.15h0Z"/>
      </g>
      <g>
        <path class="cls-9" d="m1861.8,482.16c.37,5.49-2.48,11.07-7.14,13.99-3.2,2.02-7.93,2.52-10.42-.32-2.44-2.79-1.46-7.17.38-10.39,1.62-2.84,3.95-5.45,7.03-6.56,3.08-1.13,6.97-.39,8.83,2.3l1.31.98Z"/>
        <path class="cls-9" d="m1841.76,525.94c.54,6.06.55,13.32-4.44,16.79-4.09,2.86-9.85,1.67-14.14-.88s-7.81-6.28-12.14-8.77l-.1.08c-5.74-8.89-23.26.02-28.95-8.93-2.01-3.17-1.37-7.48.62-10.66s5.12-5.47,8.21-7.61c4.59-3.17,9.29-6.18,14.09-9.02,4.68-2.78,9.73-5.47,15.16-5.31,7.45.2,13.85,5.9,17.1,12.6,3.24,6.7,3.95,14.31,4.6,21.72Z"/>
        <path class="cls-9" d="m1832.53,460.29c2.78.65,5.03,3.76,5.13,6.81.13,3.85-2.01,7.36-4.08,10.61-1.44,2.28-3.14,4.73-5.75,5.39-4.09,1.04-7.95-3.25-8.15-7.47-.2-4.22,2.08-8.11,4.26-11.73.97-1.59,2.02-3.26,3.63-4.2,1.57-.91,3.87-.85,4.95.59Z"/>
        <path class="cls-9" d="m1799.61,459.98c1.39-1.42,4.05-1.42,5.76-.21,1.95,1.4,2.85,3.83,3.3,6.18,1,5.19.3,10.69-2.01,15.46-.58,1.22-1.4,2.49-2.7,2.84-1.3.35-2.64-.35-3.71-1.15-7.22-5.43-7.76-17.57-1.26-23.73l.61.61Z"/>
        <path class="cls-10" d="m1861.8,482.16l-1.31-.98c-.86-1.24-2.17-2.05-3.62-2.47.11.35.21.71.3,1.07.83,3.43-.63,6.91-3.25,9.14-1.55,1.32-3.5,1.94-5.44,2.41-1.86.44-3.79.46-5.69.42.02,1.5.44,2.93,1.45,4.08,2.49,2.84,7.22,2.33,10.42.32,4.66-2.92,7.51-8.5,7.14-13.99Z"/>
        <path class="cls-10" d="m1841.76,525.94c-.65-7.41-1.36-15.02-4.6-21.72-3.19-6.57-9.39-12.16-16.65-12.57,2.57,1.56,4.82,3.33,6.36,4.94,6.71,7.01,13.05,19.79,11,29.68-1.22,5.86-6.11,9.6-11.97,10.03-7.06.52-12.51-4.54-17.38-8.92-2.48-2.23-5.39-5.5-8.79-6.23-2.83-.62-6.2.64-8.96,1.22-3,.64-6.31,1.17-9.33.75.16.38.34.75.57,1.11,5.69,8.95,23.2.04,28.95,8.93l.1-.08c4.33,2.49,7.85,6.22,12.14,8.77s10.05,3.74,14.14.88c5-3.48,4.98-10.73,4.44-16.79Z"/>
        <path class="cls-10" d="m1837.66,467.1c-.06-1.8-.87-3.6-2.09-4.92-.68,7.01-6.76,13.2-14.06,14.09-.64.08-1.22.04-1.76-.05.5,4.02,4.19,7.88,8.09,6.89,2.61-.66,4.31-3.11,5.75-5.39,2.07-3.25,4.21-6.76,4.08-10.61Z"/>
        <path class="cls-10" d="m1808.67,465.95c-.19-1-.47-2-.87-2.94-.2,2.55-.95,5.17-2.1,7.65-.33,3.78-1.78,7.48-4.22,10.54-.48.6-1.11,1.06-1.81,1.4.2.17.38.34.58.5,1.07.8,2.41,1.5,3.71,1.15,1.3-.35,2.12-1.62,2.7-2.84,2.3-4.76,3.01-10.26,2.01-15.46Z"/>
        <path class="cls-19" d="m1811.07,533.12c-2.01-3.31-5.77-4.26-9.4-4.55-4.36-.35-8.83.22-13.15-.65-1.91-.39-3.79-1.12-5.19-2.51-2.26-2.25-2.69-5.57-1.85-8.56,1.84-6.55,8.96-10.38,14.25-13.85,3-1.97,6.04-3.87,9.12-5.7s5.99-3.48,9.29-4.51c6.2-1.93,12.33-.36,17.1,3.96s7.25,10.23,8.57,16.38c.75,3.48,1.14,7.03,1.47,10.58.25,2.75.52,5.5.41,8.27-.13,3.14-.74,6.52-2.84,8.99-2.34,2.74-5.95,3.53-9.4,2.95-7.35-1.24-12.11-7.49-18.29-11.04-.25-.14-.47.24-.23.39,5.81,3.49,10.43,9.25,17.22,10.95,5.45,1.36,10.89-.63,12.99-6.06s1-12.59.31-18.47c-.79-6.65-2.19-13.53-6.09-19.12-3.23-4.63-8.11-8.44-13.84-9.14-7.03-.86-13.48,3.22-19.22,6.72-3.4,2.07-6.75,4.23-10.05,6.47-2.72,1.85-5.53,3.71-7.8,6.12-3.73,3.96-5.92,10.72-1.54,15.09,3.41,3.4,8.97,3.17,13.41,3.16,5.03,0,11.24-.32,14.54,4.26.09.12.29.01.21-.12h0Z"/>
        <path class="cls-19" d="m1799.37,458.78c-6.26,5.35-6.76,15.74-1.72,22.08,1.23,1.55,3.08,3.38,5.14,3.66,2.54.34,3.79-2.26,4.6-4.21,2.08-4.99,2.69-11.06,1.02-16.27-.7-2.16-2.05-4.39-4.35-5.08-1.87-.56-4.05-.08-5.09,1.67-.09.15.14.28.23.13,1.14-1.89,3.73-2.16,5.57-1.17,2.06,1.11,3.03,3.51,3.54,5.67,1.11,4.7.66,9.78-1.07,14.27-.4,1.04-.85,2.15-1.51,3.07-1.16,1.63-2.83,1.84-4.53.87-1.59-.91-2.94-2.36-3.94-3.88-1.93-2.93-2.77-6.51-2.56-9.99.24-4.02,1.92-7.86,4.94-10.56.18-.16-.08-.42-.27-.27h0Z"/>
        <path class="cls-19" d="m1832.69,460.37c-1.08-1.46-2.98-1.75-4.63-1.1-2.13.84-3.38,3.02-4.5,4.88-2.53,4.17-5.52,9.5-3.38,14.45,1.68,3.88,6.13,6.42,9.91,3.64,1.87-1.38,3.11-3.5,4.31-5.44,1.44-2.31,2.83-4.77,3.3-7.49.42-2.44-.04-4.84-1.62-6.8-1.43-1.77-3.58-2.83-5.84-2.26-.09.02-.05.15.04.14,4.84-1.05,7.7,4.55,7.07,8.62-.34,2.22-1.34,4.28-2.46,6.2-1.02,1.76-2.1,3.57-3.41,5.13s-3.24,2.94-5.47,2.68c-1.95-.23-3.6-1.57-4.67-3.17-2.66-3.97-1.13-8.76.93-12.62,1.12-2.11,2.34-4.5,4.01-6.23,1.58-1.64,4.63-2.67,6.3-.53.05.07.17-.02.12-.09h0Z"/>
        <path class="cls-19" d="m1860.56,481.15c-2.19-3.09-6.45-3.65-9.76-2.12-3.73,1.72-6.59,5.66-7.74,9.53-1.04,3.53-.32,7.76,3.57,9.09,3.6,1.22,7.59-.49,10.25-2.92,3.48-3.17,5.38-7.86,5.07-12.55-.01-.2-.32-.2-.31,0,.37,7.05-4.94,15.57-12.7,15.45-1.71-.03-3.41-.61-4.56-1.92-1.31-1.5-1.58-3.57-1.29-5.48.57-3.73,3-7.53,6.04-9.75,3.3-2.4,8.59-2.85,11.28.77.06.08.19,0,.14-.08h0Z"/>
      </g>
      <g>
        <path class="cls-9" d="m89.45,818.9c.34,3.92-1.62,7.96-4.91,10.11-2.26,1.49-5.63,1.92-7.46-.08-1.79-1.96-1.15-5.11.13-7.44,1.12-2.05,2.75-3.95,4.94-4.79,2.19-.85,4.98-.38,6.35,1.52l.95.68Z"/>
        <path class="cls-9" d="m75.73,850.5c.47,4.33.58,9.52-2.94,12.08-2.89,2.1-7.02,1.33-10.13-.43-3.11-1.76-5.67-4.39-8.81-6.11l-.07.06c-4.23-6.28-16.64.34-20.84-5.99-1.48-2.24-1.09-5.33.29-7.63,1.38-2.3,3.59-3.98,5.77-5.56,3.24-2.33,6.56-4.55,9.95-6.65,3.31-2.05,6.89-4.05,10.77-4.01,5.33.04,9.99,4.03,12.41,8.78,2.41,4.75,3.03,10.18,3.6,15.48Z"/>
        <path class="cls-9" d="m68.2,803.66c2,.43,3.65,2.62,3.77,4.8.15,2.75-1.33,5.29-2.77,7.65-1,1.65-2.18,3.43-4.04,3.94-2.91.8-5.73-2.22-5.93-5.23s1.37-5.83,2.89-8.45c.67-1.15,1.4-2.36,2.53-3.06,1.11-.67,2.76-.66,3.55.35Z"/>
        <path class="cls-9" d="m44.64,803.9c.98-1.04,2.88-1.07,4.12-.23,1.41.97,2.09,2.7,2.45,4.38.79,3.7.36,7.65-1.22,11.09-.4.88-.96,1.8-1.89,2.07s-1.9-.21-2.67-.77c-5.24-3.78-5.8-12.46-1.23-16.96l.45.43Z"/>
        <path class="cls-10" d="m89.45,818.9l-.95-.68c-.63-.88-1.58-1.44-2.62-1.72.09.25.16.5.23.76.65,2.44-.35,4.95-2.2,6.59-1.09.97-2.47,1.44-3.86,1.8-1.32.34-2.7.38-4.07.38.04,1.07.36,2.09,1.09,2.9,1.82,2,5.19,1.57,7.46.08,3.29-2.15,5.25-6.19,4.91-10.11Z"/>
        <path class="cls-10" d="m75.73,850.5c-.57-5.29-1.18-10.73-3.6-15.48-2.37-4.65-6.89-8.57-12.09-8.76,1.86,1.08,3.49,2.31,4.62,3.44,4.9,4.92,9.61,13.97,8.29,21.08-.79,4.21-4.24,6.95-8.42,7.34-5.05.47-9.01-3.07-12.56-6.14-1.81-1.56-3.94-3.86-6.38-4.34-2.04-.4-4.43.54-6.39,1-2.14.5-4.5.92-6.66.67.12.27.25.53.42.78,4.2,6.33,16.6-.3,20.84,5.99l.07-.06c3.14,1.72,5.7,4.34,8.81,6.11,3.11,1.76,7.24,2.54,10.13.43,3.52-2.56,3.41-7.75,2.94-12.08Z"/>
        <path class="cls-10" d="m71.97,808.46c-.07-1.28-.68-2.56-1.57-3.49-.39,5.02-4.65,9.54-9.86,10.28-.45.06-.87.05-1.26-.01.42,2.87,3.11,5.58,5.88,4.81,1.86-.51,3.04-2.29,4.04-3.94,1.44-2.35,2.92-4.89,2.77-7.65Z"/>
        <path class="cls-10" d="m51.21,808.05c-.15-.71-.37-1.43-.66-2.09-.11,1.82-.61,3.71-1.39,5.5-.18,2.71-1.17,5.37-2.87,7.6-.33.44-.78.77-1.28,1.03.14.12.27.24.42.35.78.56,1.74,1.04,2.67.77.93-.27,1.49-1.19,1.89-2.07,1.58-3.44,2.01-7.38,1.22-11.09Z"/>
        <path class="cls-19" d="m53.9,856.05c-3.06-4.96-10.77-2.75-15.53-3.36-3.9-.5-6.79-3.23-5.91-7.45.98-4.68,5.79-7.49,9.43-10.01,4.04-2.79,8.29-5.96,12.91-7.72,4.5-1.71,9.05-.95,12.74,2.14,3.49,2.92,5.41,7.11,6.46,11.46,1.04,4.3,1.72,9.01,1.67,13.45-.02,2.13-.32,4.4-1.54,6.2-1.57,2.32-4.35,3.08-7.02,2.68-5.22-.8-8.72-5.18-13.15-7.6-.26-.14-.48.24-.23.39,4.24,2.47,7.69,6.59,12.65,7.65,3.86.83,7.64-.65,9.09-4.48,1.53-4.03.62-8.83.07-12.96-.66-4.93-1.75-10.03-4.74-14.11-2.37-3.24-5.9-5.87-9.98-6.31-5.04-.54-9.59,2.43-13.65,5.01-2.43,1.54-4.81,3.15-7.16,4.81-1.94,1.37-3.94,2.75-5.55,4.52-2.58,2.84-4.08,7.51-1.18,10.69,2.38,2.6,6.41,2.44,9.63,2.38,3.72-.07,8.21-.48,10.79,2.79.08.11.26-.03.19-.14h0Z"/>
        <path class="cls-19" d="m44.42,803c-4.45,3.92-4.64,11.42-.93,15.9.91,1.1,2.27,2.39,3.74,2.56,1.75.21,2.62-1.43,3.2-2.81,1.5-3.61,1.9-7.97.71-11.73-.5-1.58-1.47-3.27-3.14-3.81-1.4-.46-3.07-.1-3.83,1.23-.09.15.14.28.23.13.83-1.43,2.76-1.57,4.09-.8,1.41.82,2.06,2.51,2.43,4.01.82,3.35.56,6.98-.65,10.21-.31.82-.66,1.77-1.26,2.43-.86.93-1.97.8-2.98.22-1.12-.64-2.07-1.66-2.79-2.72-1.37-2.04-2-4.54-1.91-6.99.11-2.87,1.25-5.61,3.36-7.58.18-.17-.09-.43-.27-.27h0Z"/>
        <path class="cls-19" d="m68.34,803.71c-.8-1.05-2.16-1.26-3.36-.77-1.53.63-2.41,2.22-3.19,3.58-1.77,3.06-3.85,6.95-2.2,10.5,1.28,2.75,4.52,4.48,7.19,2.45,1.34-1.02,2.2-2.56,3.05-3.98,1-1.68,1.96-3.46,2.26-5.42.27-1.78-.1-3.5-1.27-4.89-1.05-1.25-2.64-1.98-4.25-1.52-.09.02-.05.16.04.14,3.3-.76,5.43,2.96,5.14,5.8-.17,1.67-.89,3.23-1.69,4.68-.67,1.21-1.38,2.45-2.24,3.55-.9,1.15-2.13,2.18-3.67,2.15-1.45-.03-2.74-.97-3.57-2.12-2.01-2.79-.99-6.24.43-9.05.77-1.52,1.61-3.24,2.77-4.51,1.08-1.17,3.23-1.97,4.44-.5.05.07.17-.02.12-.09h0Z"/>
        <path class="cls-19" d="m88.56,818.18c-1.61-2.21-4.67-2.57-7.04-1.43-2.65,1.27-4.65,4.13-5.43,6.91-.72,2.58-.15,5.67,2.7,6.58,2.66.85,5.57-.51,7.46-2.36,2.38-2.33,3.64-5.67,3.35-8.99-.02-.2-.33-.2-.31,0,.35,5.01-3.3,11.14-8.82,11.18-1.27,0-2.54-.43-3.37-1.43-.91-1.1-1.06-2.61-.83-3.97.44-2.59,2.06-5.22,4.16-6.8,2.31-1.73,6.05-2.1,8,.4.05.07.18-.02.12-.1h0Z"/>
      </g>
      <g>
        <path class="cls-9" d="m944.22,756.94c.34,3.92-1.62,7.96-4.91,10.11-2.26,1.49-5.63,1.92-7.46-.08-1.79-1.96-1.15-5.11.13-7.44,1.12-2.05,2.75-3.95,4.94-4.79,2.19-.85,4.98-.38,6.35,1.52l.95.68Z"/>
        <path class="cls-9" d="m930.5,788.54c.47,4.33.58,9.52-2.94,12.08-2.89,2.1-7.02,1.33-10.13-.43-3.11-1.76-5.67-4.39-8.81-6.11l-.07.06c-4.23-6.28-16.64.34-20.84-5.99-1.48-2.24-1.09-5.33.29-7.63,1.38-2.3,3.59-3.98,5.77-5.56,3.24-2.33,6.56-4.55,9.95-6.65,3.31-2.05,6.88-4.05,10.77-4.01,5.33.04,9.99,4.03,12.41,8.78,2.41,4.75,3.03,10.18,3.6,15.48Z"/>
        <path class="cls-9" d="m922.97,741.7c2,.43,3.65,2.62,3.77,4.8.15,2.75-1.33,5.29-2.77,7.65-1,1.65-2.18,3.43-4.04,3.94-2.91.8-5.73-2.22-5.93-5.23s1.37-5.83,2.89-8.45c.67-1.15,1.4-2.36,2.53-3.06,1.11-.67,2.76-.66,3.55.35Z"/>
        <path class="cls-9" d="m899.41,741.94c.98-1.04,2.88-1.07,4.12-.23,1.41.97,2.09,2.7,2.45,4.38.79,3.7.36,7.65-1.22,11.09-.4.88-.96,1.8-1.89,2.07-.93.27-1.9-.21-2.67-.77-5.24-3.78-5.8-12.46-1.23-16.96l.45.43Z"/>
        <path class="cls-10" d="m944.22,756.94l-.95-.68c-.63-.88-1.58-1.44-2.62-1.72.09.25.16.5.23.76.65,2.44-.35,4.95-2.2,6.59-1.09.97-2.47,1.44-3.86,1.8-1.32.34-2.7.38-4.07.38.04,1.07.36,2.09,1.09,2.9,1.82,2,5.19,1.57,7.46.08,3.29-2.15,5.25-6.19,4.91-10.11Z"/>
        <path class="cls-10" d="m930.5,788.54c-.57-5.29-1.18-10.73-3.6-15.48-2.37-4.65-6.89-8.57-12.09-8.76,1.86,1.08,3.49,2.31,4.62,3.44,4.9,4.92,9.61,13.97,8.29,21.08-.79,4.21-4.24,6.95-8.42,7.34-5.04.47-9.01-3.07-12.56-6.14-1.81-1.56-3.94-3.86-6.37-4.34-2.04-.4-4.43.54-6.39,1-2.14.5-4.5.92-6.66.67.12.27.25.53.42.78,4.2,6.33,16.6-.3,20.84,5.99l.07-.06c3.14,1.72,5.7,4.34,8.81,6.11,3.11,1.76,7.24,2.54,10.13.43,3.52-2.56,3.41-7.75,2.94-12.08Z"/>
        <path class="cls-10" d="m926.74,746.5c-.07-1.28-.68-2.56-1.57-3.49-.39,5.02-4.65,9.54-9.86,10.28-.45.06-.87.05-1.26-.01.42,2.87,3.11,5.58,5.88,4.81,1.86-.51,3.04-2.29,4.04-3.94,1.44-2.35,2.92-4.89,2.77-7.65Z"/>
        <path class="cls-10" d="m905.98,746.09c-.15-.71-.37-1.43-.66-2.09-.11,1.82-.61,3.71-1.39,5.5-.18,2.71-1.17,5.37-2.87,7.6-.33.44-.78.77-1.28,1.03.14.12.27.24.42.35.78.55,1.74,1.04,2.67.77.93-.27,1.49-1.19,1.89-2.07,1.58-3.44,2.01-7.38,1.22-11.09Z"/>
        <path class="cls-19" d="m908.67,794.09c-3.06-4.96-10.77-2.75-15.53-3.36-3.9-.5-6.79-3.23-5.91-7.45.98-4.68,5.79-7.49,9.43-10.01,4.04-2.79,8.29-5.96,12.91-7.72,4.5-1.71,9.05-.95,12.74,2.14,3.49,2.92,5.41,7.11,6.46,11.46,1.04,4.3,1.72,9.01,1.67,13.45-.02,2.13-.32,4.4-1.54,6.2-1.57,2.32-4.35,3.08-7.02,2.68-5.22-.8-8.72-5.18-13.15-7.6-.26-.14-.48.24-.23.39,4.24,2.47,7.69,6.59,12.65,7.65,3.86.83,7.64-.65,9.09-4.48,1.53-4.03.62-8.83.07-12.96-.66-4.93-1.75-10.03-4.74-14.11-2.37-3.24-5.9-5.87-9.98-6.31-5.04-.54-9.59,2.43-13.65,5.01-2.43,1.54-4.81,3.15-7.16,4.81-1.94,1.37-3.94,2.75-5.55,4.52-2.58,2.84-4.08,7.51-1.18,10.69,2.38,2.6,6.41,2.44,9.63,2.38,3.72-.07,8.21-.48,10.79,2.79.08.11.26-.03.19-.14h0Z"/>
        <path class="cls-19" d="m899.19,741.05c-4.45,3.92-4.64,11.42-.93,15.9.91,1.1,2.27,2.39,3.74,2.56,1.75.21,2.62-1.43,3.2-2.81,1.5-3.61,1.9-7.97.71-11.73-.5-1.58-1.47-3.27-3.14-3.81-1.4-.46-3.07-.1-3.83,1.23-.09.15.14.28.23.13.83-1.43,2.76-1.57,4.09-.8,1.41.82,2.06,2.51,2.43,4.01.82,3.35.56,6.98-.65,10.21-.31.82-.66,1.77-1.26,2.43-.86.93-1.97.8-2.98.22-1.12-.64-2.07-1.66-2.79-2.72-1.37-2.04-2-4.54-1.91-6.99.11-2.87,1.25-5.61,3.36-7.58.18-.17-.09-.43-.27-.27h0Z"/>
        <path class="cls-19" d="m923.11,741.75c-.8-1.05-2.16-1.26-3.36-.77-1.53.63-2.41,2.22-3.19,3.58-1.77,3.06-3.85,6.95-2.2,10.5,1.28,2.75,4.52,4.48,7.19,2.45,1.34-1.02,2.2-2.56,3.05-3.98,1-1.68,1.96-3.46,2.26-5.42.27-1.78-.1-3.5-1.27-4.89-1.05-1.25-2.64-1.98-4.25-1.52-.09.02-.05.16.04.14,3.3-.76,5.43,2.96,5.14,5.8-.17,1.67-.89,3.23-1.69,4.68-.67,1.21-1.38,2.45-2.24,3.55-.9,1.15-2.13,2.18-3.67,2.15-1.45-.03-2.74-.97-3.57-2.12-2.01-2.79-.99-6.24.43-9.05.77-1.52,1.61-3.24,2.77-4.51,1.08-1.17,3.23-1.97,4.44-.5.05.07.17-.02.12-.09h0Z"/>
        <path class="cls-19" d="m943.34,756.22c-1.61-2.21-4.67-2.57-7.04-1.43-2.65,1.27-4.65,4.13-5.43,6.91-.72,2.58-.15,5.67,2.7,6.58,2.66.85,5.57-.51,7.46-2.36,2.38-2.33,3.64-5.67,3.35-8.99-.02-.2-.33-.2-.31,0,.35,5.01-3.3,11.14-8.82,11.18-1.27,0-2.54-.43-3.37-1.43-.91-1.1-1.06-2.61-.83-3.97.44-2.59,2.06-5.22,4.16-6.8,2.31-1.73,6.05-2.1,8,.4.05.07.18-.02.12-.1h0Z"/>
      </g>
      <g>
        <path class="cls-9" d="m420,474.84c3.47,1.87,5.76,5.72,5.75,9.66,0,2.71-1.49,5.76-4.16,6.19-2.62.42-4.9-1.85-6.15-4.19-1.1-2.06-1.79-4.47-1.29-6.76.49-2.29,2.42-4.37,4.76-4.48l1.09-.42Z"/>
        <path class="cls-9" d="m438.88,503.65c3.88,1.98,8.28,4.74,8.48,9.09.17,3.57-2.74,6.6-5.92,8.23-3.18,1.63-6.78,2.34-9.94,4.01v.09c-7.57.09-8.84,14.1-16.43,14.13-2.68.01-5.05-2.02-6.22-4.43s-1.36-5.18-1.48-7.87c-.17-3.99-.21-7.98-.1-11.97.1-3.89.39-7.98,2.56-11.21,2.96-4.44,8.85-6.14,14.15-5.56,5.29.59,10.17,3.06,14.91,5.49Z"/>
        <path class="cls-9" d="m395.6,484.24c1.45-1.44,4.2-1.62,6.08-.51,2.38,1.39,3.69,4.02,4.87,6.51.83,1.74,1.67,3.7,1.07,5.54-.93,2.87-5,3.58-7.63,2.09-2.63-1.49-4.12-4.35-5.48-7.05-.6-1.19-1.2-2.46-1.16-3.8.05-1.3.96-2.67,2.24-2.78Z"/>
        <path class="cls-9" d="m382.87,504.06c-.33-1.39.68-2.99,2.07-3.57,1.59-.65,3.41-.27,5,.35,3.53,1.37,6.59,3.89,8.6,7.1.52.82.98,1.79.69,2.72-.29.92-1.22,1.47-2.11,1.81-6.04,2.3-13.6-1.99-14.85-8.28l.6-.14Z"/>
        <path class="cls-10" d="m420,474.84l-1.09.42c-1.08.05-2.07.53-2.87,1.25.26.07.51.14.76.22,2.4.8,3.95,3.01,4.3,5.45.21,1.44-.15,2.86-.61,4.21-.44,1.29-1.16,2.47-1.91,3.61.92.56,1.94.85,3.02.68,2.67-.43,4.16-3.48,4.16-6.19,0-3.93-2.29-7.79-5.75-9.66Z"/>
        <path class="cls-10" d="m438.88,503.65c-4.74-2.43-9.62-4.9-14.91-5.49-5.19-.57-10.94,1.06-13.96,5.3,1.92-.96,3.85-1.65,5.41-1.97,6.8-1.39,16.96-.37,22.17,4.64,3.09,2.97,3.49,7.36,1.51,11.07-2.38,4.48-7.51,5.85-12.02,7.13-2.3.65-5.38,1.17-7.12,2.95-1.45,1.48-1.98,4-2.67,5.89-.76,2.06-1.7,4.27-3.1,5.94.29.05.58.08.88.08,7.59-.04,8.86-14.04,16.44-14.13v-.09c3.15-1.68,6.75-2.38,9.93-4.01,3.18-1.63,6.1-4.66,5.92-8.23-.2-4.35-4.6-7.1-8.48-9.09Z"/>
        <path class="cls-10" d="m401.68,483.72c-1.11-.65-2.51-.84-3.78-.61,3.99,3.09,5.42,9.12,3.18,13.89-.2.42-.44.75-.7,1.05,2.63,1.23,6.37.46,7.25-2.28.59-1.84-.24-3.79-1.07-5.54-1.18-2.49-2.49-5.12-4.87-6.51Z"/>
        <path class="cls-10" d="m389.94,500.85c-.68-.26-1.39-.48-2.11-.59,1.46,1.09,2.77,2.55,3.83,4.19,2.17,1.64,3.85,3.93,4.78,6.57.18.52.22,1.08.16,1.63.17-.06.35-.1.52-.16.89-.34,1.82-.89,2.11-1.81.29-.92-.17-1.9-.69-2.72-2.01-3.21-5.07-5.73-8.6-7.1Z"/>
        <path class="cls-19" d="m431.53,524.95c-5.33-.15-7.84,6.47-10.46,10.04-1.73,2.36-4.2,4.57-7.35,3.74-5.49-1.44-5.92-8.22-6.1-12.83-.2-5.23-.48-10.72.29-15.92.7-4.73,3.16-8.61,7.68-10.44,4.19-1.7,8.78-1.38,13.03-.08s8.92,3.54,12.88,5.99c1.87,1.16,3.77,2.61,4.81,4.6,1.25,2.4.81,5.08-.78,7.21-3.39,4.53-9.45,5.03-14.15,7.52-.26.14-.03.51.23.39,4.56-2.27,10.18-2.89,13.76-6.82,2.77-3.04,3-7.12.28-10.27-1.31-1.53-3.04-2.68-4.77-3.68-2.28-1.31-4.67-2.48-7.06-3.56-4.42-2-9.25-3.55-14.16-2.94-4.01.5-7.98,2.36-10.22,5.84-2.82,4.38-2.53,10.18-2.54,15.17,0,2.96.04,5.92.21,8.88.14,2.54.43,5.16,1.65,7.44,1.64,3.08,5.21,5.22,8.64,3.78,3.02-1.27,4.77-4.54,6.42-7.17,1.83-2.91,3.92-6.35,7.71-6.66.15-.01.16-.23,0-.24h0Z"/>
        <path class="cls-19" d="m382,503.77c.85,5.96,7.21,10.28,13.06,9.46,1.36-.19,3.11-.63,3.99-1.78,1.12-1.47-.04-3.25-.94-4.49-2.11-2.93-5.12-5.25-8.53-6.45-1.74-.61-3.97-.9-5.52.33-1.16.92-1.78,2.52-1.08,3.89.08.15.31.02.23-.13-.82-1.64.42-3.5,2.03-4.03s3.38-.03,4.89.59c2.95,1.2,5.56,3.24,7.46,5.8,1.12,1.51,2.42,3.64.3,4.93-1.12.68-2.56.96-3.85,1.01-2.51.1-5.02-.73-7.07-2.16-2.39-1.67-4.1-4.16-4.6-7.05-.04-.24-.4-.14-.36.1h0Z"/>
        <path class="cls-19" d="m395.71,484.15c-1.46.09-2.42,1.37-2.53,2.77-.15,1.93,1.06,3.85,1.93,5.49,1.56,2.95,3.82,6.17,7.45,6.41,3.02.21,5.86-1.78,5.43-5.05-.26-1.97-1.31-3.88-2.24-5.61-.84-1.58-1.87-3.13-3.34-4.2-2.35-1.71-6.74-1.6-7.73,1.64-.03.09.11.12.14.04.95-2.64,4.5-3.01,6.68-1.79,2.77,1.54,4.34,5.01,5.47,7.84.62,1.56,1.04,3.45,0,4.93-.74,1.06-2.03,1.61-3.28,1.75-3.08.34-5.45-1.72-7.04-4.15-.96-1.46-1.79-3.06-2.49-4.66-.44-1.01-.8-2.17-.5-3.27.27-.97,1-1.89,2.05-2,.09,0,.1-.16,0-.15h0Z"/>
        <path class="cls-19" d="m418.9,475.18c-2.71.15-4.7,2.47-5.05,5.08-.41,3.06,1,6.52,3.12,8.71,1.85,1.92,4.73,2.77,6.88.8,1.95-1.79,2.37-4.72,1.92-7.21-.61-3.33-2.73-6.25-5.7-7.86-.17-.09-.33.17-.16.27,4.27,2.41,7.29,8.45,4.74,13.1-1.34,2.44-4.06,3.15-6.36,1.52s-3.79-4.7-4.07-7.45c-.3-2.97,1.38-6.5,4.68-6.8.1,0,.1-.16,0-.16h0Z"/>
      </g>
      <g>
        <path class="cls-14" d="m1062.88,928.04c-9.65,4.23-20.99,4.45-30.77.56,8.73-11.2,23.11-17.72,37.27-17.03.52.03,1.03.07,1.54.12l-.09,1.15c.42.43.83.85,1.21,1.31,11.65,13.01,13.46,33.97,3.97,48.69-5.93-10.1-12.07-21.17-10.69-32.79.09-.81.14-1.81-.57-2.23-.56-.33-1.27-.05-1.86.21Z"/>
        <path class="cls-14" d="m1082.54,897.31c7.24,4.28,13.19,10.94,15.65,18.97-7.06-2.98-13.98-6.27-20.76-9.87-1.35-.7-2.68-1.43-3.99-2.16-6.91-3.81-13.64-7.96-20.15-12.39l-.03-.9c8.07-.36,16.33.64,23.79,3.66,1.07.43,2.12.91,3.16,1.43.79.4,1.56.83,2.33,1.27Z"/>
        <path class="cls-14" d="m1070.92,911.69c-.51-.05-1.02-.09-1.54-.12,1.3-2.35,2.59-4.69,3.89-7.03l.16-.3c1.32.74,2.65,1.46,3.99,2.16-.84,2.72-2.46,5.17-4.58,7.04l-.81.7c-.39-.45-.79-.88-1.21-1.31l.09-1.15Z"/>
        <path class="cls-14" d="m1082.87,886.98c-2.82-1.93-5.6-3.91-8.35-5.95-4.94-3.67-10.02-7.59-15.96-9.04l.08-1.81c10.3.61,20.39,3.97,29.16,9.41,1.62,1.01,3.19,2.09,4.7,3.22,7.45,5.59,13.7,12.78,17.96,21.09-7.61-4.12-15.05-8.57-22.28-13.32-1.78-1.17-3.56-2.37-5.31-3.6Z"/>
        <path class="cls-14" d="m1077.05,894.61l.11-.28c2.44-1.97,4.41-4.5,5.71-7.36,1.75,1.23,3.53,2.42,5.31,3.6l-.28.45c-1.8,2.1-3.57,4.19-5.36,6.28-.77-.45-1.54-.88-2.33-1.27-1.04-.52-2.09-1-3.16-1.43Z"/>
        <path class="cls-14" d="m1092.55,869.54c-9.55-5.05-19.29-9.77-29.18-14.11l.49-1.13c11.5-.73,23.06,1.82,33.38,6.91,1.95.96,3.86,2.02,5.71,3.16,10.09,6.21,18.61,14.96,24.13,25.46-9.24-5.99-18.67-11.64-28.3-16.93-2.07-1.14-4.14-2.24-6.23-3.35Z"/>
        <path class="cls-14" d="m1092.51,882.81c-1.52-1.13-3.09-2.21-4.7-3.22,2.16-3.05,3.78-6.45,4.75-10.05,2.09,1.11,4.16,2.21,6.23,3.35l-.32.59c-1.86,2.96-3.74,5.91-5.62,8.86l-.34.47Z"/>
        <path class="cls-14" d="m1107.35,839.72c1.78.58,3.53,1.24,5.25,2,.39.17.8.36,1.19.55,12.91,5.94,23.87,16.68,28.47,30.11-11.93-4.78-23.16-11.43-34.5-17.63-2.11-1.17-4.22-2.3-6.34-3.41-9.55-5-19.3-9.38-29.73-11.8l-.36-2.81c12.08-1.53,24.55-.87,36.03,2.99Z"/>
        <path class="cls-14" d="m1097.25,861.21l.29-.6c2.14-2.5,3.46-5.7,3.73-8.98l.15-.29c2.12,1.1,4.23,2.24,6.34,3.41l-.02.05c-1.55,3.11-3.1,6.24-4.65,9.36l-.13.22c-1.85-1.14-3.76-2.19-5.71-3.16Z"/>
        <path class="cls-14" d="m1083.18,816.05l.62-.94c4.58-5.89,7.38-13,11.89-18.95,10.06-13.33,26.98-19.15,42.88-24.26,1.1-.35,2.3-.71,3.41-.35,1.42.46,2.21,1.96,2.83,3.35,9.67,21.69,11.51,46.78,5.1,69.65l-.18.62c-11.41-.83-22.21-4.32-32.56-9.16-2.18-.99-4.31-2.06-6.44-3.17-9.49-4.98-18.64-10.92-27.55-16.78Z"/>
        <path class="cls-14" d="m1112.6,841.72c-1.72-.76-3.46-1.42-5.25-2,1.96-1.49,3.16-3.94,3.11-6.42l.26-.48c2.13,1.12,4.26,2.18,6.44,3.17l-.22.48c-.97,1.75-1.95,3.52-2.92,5.27l-.24.51c-.39-.19-.79-.38-1.19-.55Z"/>
        <path class="cls-15" d="m1062.88,928.04c-9.65,4.23-20.99,4.45-30.77.56,8.73-11.2,23.11-17.72,37.27-17.03.52.03,1.03.07,1.54.12l-.09,1.15c.42.43.83.85,1.21,1.31,11.65,13.01,13.46,33.97,3.97,48.69-5.93-10.1-12.07-21.17-10.69-32.79.09-.81.14-1.81-.57-2.23-.56-.33-1.27-.05-1.86.21Z"/>
        <path class="cls-15" d="m1082.54,897.31c7.24,4.28,13.19,10.94,15.65,18.97-7.06-2.98-13.98-6.27-20.76-9.87-1.35-.7-2.68-1.43-3.99-2.16-6.91-3.81-13.64-7.96-20.15-12.39l-.03-.9c8.07-.36,16.33.64,23.79,3.66,1.07.43,2.12.91,3.16,1.43.79.4,1.56.83,2.33,1.27Z"/>
        <path class="cls-15" d="m1070.92,911.69c-.51-.05-1.02-.09-1.54-.12,1.3-2.35,2.59-4.69,3.89-7.03l.16-.3c1.32.74,2.65,1.46,3.99,2.16-.84,2.72-2.46,5.17-4.58,7.04l-.81.7c-.39-.45-.79-.88-1.21-1.31l.09-1.15Z"/>
        <path class="cls-15" d="m1082.87,886.98c-2.82-1.93-5.6-3.91-8.35-5.95-4.94-3.67-10.02-7.59-15.96-9.04l.08-1.81c10.3.61,20.39,3.97,29.16,9.41,1.62,1.01,3.19,2.09,4.7,3.22,7.45,5.59,13.7,12.78,17.96,21.09-7.61-4.12-15.05-8.57-22.28-13.32-1.78-1.17-3.56-2.37-5.31-3.6Z"/>
        <path class="cls-15" d="m1077.05,894.61l.11-.28c2.44-1.97,4.41-4.5,5.71-7.36,1.75,1.23,3.53,2.42,5.31,3.6l-.28.45c-1.8,2.1-3.57,4.19-5.36,6.28-.77-.45-1.54-.88-2.33-1.27-1.04-.52-2.09-1-3.16-1.43Z"/>
        <path class="cls-15" d="m1092.55,869.54c-9.55-5.05-19.29-9.77-29.18-14.11l.49-1.13c11.5-.73,23.06,1.82,33.38,6.91,1.95.96,3.86,2.02,5.71,3.16,10.09,6.21,18.61,14.96,24.13,25.46-9.24-5.99-18.67-11.64-28.3-16.93-2.07-1.14-4.14-2.24-6.23-3.35Z"/>
        <path class="cls-15" d="m1092.51,882.81c-1.52-1.13-3.09-2.21-4.7-3.22,2.16-3.05,3.78-6.45,4.75-10.05,2.09,1.11,4.16,2.21,6.23,3.35l-.32.59c-1.86,2.96-3.74,5.91-5.62,8.86l-.34.47Z"/>
        <path class="cls-15" d="m1107.35,839.72c1.78.58,3.53,1.24,5.25,2,.39.17.8.36,1.19.55,12.91,5.94,23.87,16.68,28.47,30.11-11.93-4.78-23.16-11.43-34.5-17.63-2.11-1.17-4.22-2.3-6.34-3.41-9.55-5-19.3-9.38-29.73-11.8l-.36-2.81c12.08-1.53,24.55-.87,36.03,2.99Z"/>
        <path class="cls-15" d="m1097.25,861.21l.29-.6c2.14-2.5,3.46-5.7,3.73-8.98l.15-.29c2.12,1.1,4.23,2.24,6.34,3.41l-.02.05c-1.55,3.11-3.1,6.24-4.65,9.36l-.13.22c-1.85-1.14-3.76-2.19-5.71-3.16Z"/>
        <path class="cls-15" d="m1110.73,832.83c2.13,1.12,4.26,2.18,6.44,3.17,10.35,4.84,21.15,8.33,32.56,9.16l.18-.62c.54-1.93,1-3.87,1.42-5.83-17.01-.48-40.24-8.38-45-24.49-6.5-22.02,20.62-34.38,38.17-39.99-.58-1.17-1.33-2.3-2.52-2.69-1.11-.36-2.31,0-3.41.35-15.9,5.12-32.83,10.94-42.88,24.26-4.5,5.95-7.31,13.06-11.89,18.95l-.62.94c8.91,5.86,18.06,11.8,27.55,16.78Z"/>
        <path class="cls-15" d="m1112.6,841.72c-1.72-.76-3.46-1.42-5.25-2,1.96-1.49,3.16-3.94,3.11-6.42l.26-.48c2.13,1.12,4.26,2.18,6.44,3.17l-.22.48c-.97,1.75-1.95,3.52-2.92,5.27l-.24.51c-.39-.19-.79-.38-1.19-.55Z"/>
        <path class="cls-19" d="m1149.73,844.96c-19.28-1.78-36.59-10.33-52.84-20.38-4.6-2.85-9.12-5.8-13.64-8.77-.27-.18-.51.25-.25.43,15.96,10.49,32.4,21.22,50.99,26.38,5.13,1.42,10.42,2.43,15.74,2.75.25.02.25-.37,0-.39h0Z"/>
        <path class="cls-19" d="m1132.71,802.34c-4.1,3.03-8.61,5.34-13.58,6.56-2.45.6-4.96.94-7.48,1-1.27.03-2.54,0-3.81-.12-.35-.03-4.3-.29-3.96-1.09-.1.24.22.45.36.21.28-.47-.29-.83-.74-.65-.72.3-.21,1.07.25,1.33,1.11.62,3.04.6,4.29.7,1.87.15,3.75.14,5.61-.01,6.93-.57,13.91-3.16,19.2-7.75.1-.09-.04-.28-.15-.19h0Z"/>
        <path class="cls-19" d="m1114.58,796.64c2.79,4.2,5.07,8.66,6.63,13.47.73,2.26,1.31,4.57,1.73,6.91.47,2.62.52,5.25.83,7.89.02.2.3.2.31,0,.18-2.43-.21-4.97-.6-7.37-.42-2.56-1.04-5.08-1.84-7.55-1.56-4.8-3.83-9.42-6.79-13.5-.11-.16-.38-.01-.27.16h0Z"/>
        <path class="cls-19" d="m1150.1,844.58c6.03-20.23,4.88-42.82-2.19-62.62-.87-2.43-1.82-4.85-2.88-7.2-.7-1.54-1.64-3.28-3.48-3.58-1.17-.19-2.33.23-3.42.58-1.11.35-2.21.71-3.32,1.08-2.29.75-4.57,1.53-6.84,2.34-8.6,3.1-17.14,6.85-24.36,12.56-4.16,3.3-7.67,7.23-10.51,11.71-3.25,5.13-5.81,10.68-9.53,15.51-.19.25.23.5.43.25,3.09-4.01,5.39-8.53,7.93-12.89,2.44-4.17,5.22-8.06,8.74-11.4,6.58-6.24,14.83-10.41,23.21-13.7,4.12-1.62,8.32-3.04,12.53-4.41,1.08-.35,2.16-.76,3.27-1.02,1.84-.44,3.22.16,4.19,1.77,1.27,2.11,2.09,4.57,2.95,6.86,3.61,9.58,5.75,19.71,6.39,29.92.72,11.54-.61,22.94-3.5,34.12-.06.24.3.34.37.1h0Z"/>
        <path class="cls-19" d="m1069.52,837.14c12.3-1.52,24.83-1.29,36.74,2.48,10.3,3.26,19.76,9.15,26.81,17.38,3.9,4.55,6.98,9.77,8.95,15.44.1-.1.2-.2.3-.3-19.55-7.85-36.76-20.46-56.32-28.28-5.41-2.17-10.99-3.92-16.7-5.08-.31-.06-.44.41-.13.47,20.87,4.23,38.76,16.34,57.35,26.04,5.11,2.67,10.32,5.17,15.67,7.32.17.07.36-.14.3-.3-3.47-10-10.34-18.48-18.89-24.63-9.59-6.89-21.11-10.56-32.81-11.61-7.09-.64-14.29-.39-21.32.74-.19.03-.14.36.04.33h0Z"/>
        <path class="cls-19" d="m1063.86,854.44c19.93-.83,39.59,7.15,53.22,21.76,3.85,4.13,7.15,8.75,9.79,13.75.11-.11.22-.22.33-.33-15.88-10.3-32.4-19.61-49.45-27.84-4.84-2.33-9.73-4.58-14.65-6.74-.29-.13-.54.3-.25.43,17.33,7.62,34.18,16.31,50.42,26.04,4.61,2.76,9.17,5.61,13.68,8.53.21.14.44-.13.33-.33-9.37-17.71-27.08-30.46-46.65-34.43-5.51-1.12-11.16-1.55-16.77-1.1-.17.01-.17.27,0,.26h0Z"/>
        <path class="cls-19" d="m1056.9,870.22c8.72.57,17.12,2.53,25,6.38,7.63,3.73,14.54,8.96,20.14,15.35,3.22,3.68,5.99,7.74,8.23,12.08.11-.11.22-.22.32-.32-7.41-4.02-14.66-8.34-21.72-12.96-3.53-2.31-7.01-4.7-10.43-7.15-3.21-2.3-6.33-4.76-9.61-6.96-3.47-2.33-7.24-4.37-11.4-5.11-.27-.05-.39.36-.12.42,7.7,1.63,13.72,6.89,19.93,11.37,6.71,4.85,13.62,9.42,20.7,13.7,4.08,2.46,8.21,4.83,12.4,7.1.21.12.43-.11.32-.32-7.98-15.45-22.67-27.07-39.39-31.7-4.66-1.29-9.54-2.1-14.39-2.09-.15,0-.14.21,0,.22h0Z"/>
        <path class="cls-19" d="m1053.17,891.1c14.46-.52,29.9,3.33,39.32,15.05,2.44,3.04,4.32,6.48,5.49,10.19.11-.09.22-.17.33-.26-15.73-6.64-30.78-14.83-44.9-24.43-.25-.17-.48.23-.23.4,14.12,9.6,29.17,17.79,44.9,24.42.17.07.4-.05.33-.26-4.43-14.05-17.99-22.49-31.95-24.76-4.41-.72-8.84-.86-13.29-.64-.18,0-.18.28,0,.28h0Z"/>
        <path class="cls-19" d="m1070.72,912.95c9.77,10.13,13.36,25.42,9.81,38.96-1,3.83-2.59,7.47-4.72,10.81h.41c-4.97-8.48-10.23-17.58-10.8-27.63-.07-1.17-.07-2.33,0-3.5.06-.91.33-1.95.15-2.86-.31-1.53-1.64-1.38-2.81-.9-4.68,1.9-9.48,3.1-14.55,3.27-5.47.19-10.92-.75-16.02-2.73l.11.41c4.54-5.76,10.5-10.29,17.21-13.22,6.89-3.01,14.24-4.08,21.71-3.65.26.01.24-.36,0-.39-14.73-1.74-30.2,5.39-39.28,16.91-.12.15-.08.34.11.41,8.32,3.24,17.65,3.65,26.23,1.14,1.04-.3,2.06-.65,3.07-1.04,1.18-.46,3.66-1.88,3.77.33.05.98-.18,2-.22,2.99-.05,1.16-.02,2.33.07,3.49.36,4.57,1.7,9,3.48,13.21,2.06,4.87,4.69,9.46,7.36,14.01.09.16.32.15.41,0,7.62-11.95,8.01-27.79,1.75-40.4-1.81-3.64-4.17-6.93-7.03-9.81-.13-.13-.34.07-.21.21h0Z"/>
        <path class="cls-19" d="m1116.91,836.47c-.07.12-.13.24-.21.36-.07.11-.16.18-.24.28-.15.21-.25.46-.38.68-.23.42-.47.85-.7,1.27-.49.88-.97,1.76-1.46,2.63-.08.14.14.26.21.12.49-.88.97-1.76,1.46-2.63.23-.42.47-.85.7-1.27.12-.21.24-.42.35-.64.08-.15.07-.22.14-.4.05-.13.13-.25.19-.37.02-.05-.04-.09-.07-.04h0Z"/>
        <path class="cls-19" d="m1110.38,833.31c0,1.26-.31,2.51-.88,3.64-.57,1.12-1.39,2.03-2.34,2.82-.07.06.02.18.1.13,2.13-1.39,3.35-4.08,3.29-6.59,0-.11-.17-.11-.17,0h0Z"/>
        <path class="cls-19" d="m1101.17,851.63c-.33,3.26-1.61,6.38-3.73,8.89-.11.14.08.33.2.2,2.16-2.56,3.5-5.74,3.74-9.09,0-.13-.19-.13-.21,0h0Z"/>
        <path class="cls-19" d="m1092.55,869.37c-.52,1.84-1.21,3.63-2.02,5.35-.38.81-.8,1.61-1.26,2.39-.48.83-1.05,1.61-1.54,2.42-.06.09.08.21.16.12,1.18-1.45,2.09-3.22,2.87-4.9.81-1.72,1.42-3.52,1.89-5.36.02-.06-.08-.09-.1-.03h0Z"/>
        <path class="cls-19" d="m1082.84,886.91c-1.33,2.83-3.34,5.38-5.76,7.35-.12.1.05.26.17.17,2.48-2.02,4.39-4.55,5.69-7.46.03-.06-.06-.12-.09-.06h0Z"/>
        <path class="cls-19" d="m1073.23,904.52c-1.34,2.32-2.65,4.65-3.95,6.99-.08.14.14.27.22.13,1.29-2.35,2.57-4.7,3.82-7.06.03-.06-.05-.1-.08-.05h0Z"/>
        <path class="cls-19" d="m1107.64,854.74c-1.57,3.11-3.12,6.24-4.67,9.36-.07.14.14.27.22.13,1.55-3.12,3.11-6.24,4.64-9.38.06-.13-.13-.24-.19-.11h0Z"/>
        <path class="cls-19" d="m1098.44,873.46c-.96,1.46-1.93,2.92-2.88,4.39-.47.74-.94,1.47-1.41,2.21-.46.73-1.01,1.45-1.37,2.24-.03.07.06.17.12.09.53-.62.93-1.37,1.36-2.06.48-.76.97-1.52,1.45-2.29.95-1.5,1.87-3.02,2.8-4.54.03-.05-.05-.09-.08-.05h0Z"/>
        <path class="cls-19" d="m1087.84,890.98c-1.83,2.06-3.61,4.16-5.41,6.25-.1.12.07.3.18.18,1.79-2.09,3.6-4.18,5.35-6.31.07-.09-.05-.21-.12-.12h0Z"/>
        <path class="cls-19" d="m1077.48,905.97c-.86,2.84-2.5,5.43-4.73,7.39-.13.11.06.3.19.19,2.27-2,3.92-4.61,4.72-7.53.03-.11-.14-.16-.18-.05h0Z"/>
      </g>
      <g>
        <path class="cls-14" d="m976.24,1036.81c-5.62,3.16-12.6,2.09-18.82.41-14.14-3.84-27.4-10.38-39.4-18.8l1.04-1.46c-2.49-10.94,2.67-22.47,10.51-30.47,7.83-8.02,18.07-13.18,28.08-18.2l.12-.11c9.45,10.47,17.19,22.43,22.68,35.48,2.37,5.63,4.37,11.6,4.15,17.72-.23,6.11-3.05,12.42-8.37,15.43Z"/>
        <path class="cls-20" d="m912.89,988.77c1.17-3.23,3.03-6.23,5.38-8.77l-.59-.56c-1.29-6.09-2.68-12.39-6.48-17.31-3.8-4.92-10.76-8-16.39-5.37-7.31,3.4-7.94,14.43-3.08,20.84,4.86,6.43,13.09,9.21,20.93,11.08l.23.09Zm6.18,28.19l-1.04,1.46c-8.68-6.07-16.69-13.12-23.92-20.84-17.21-18.42-30.14-40.53-40.18-63.66l.04-1.39c2.01-3.4,3.41-7.09,4.21-10.92l1.39,1.8c37.1-.02,73.45,17.28,98.21,44.77l-.12.11c-10.02,5.01-20.25,10.18-28.08,18.2-7.84,8-13,19.54-10.51,30.47Z"/>
        <path class="cls-17" d="m912.89,988.77l-.23-.09c-7.83-1.87-16.07-4.65-20.93-11.08-4.86-6.4-4.23-17.44,3.08-20.84,5.63-2.63,12.59.45,16.39,5.37,3.8,4.92,5.19,11.22,6.48,17.31l.59.56c-2.35,2.54-4.21,5.54-5.38,8.77Z"/>
        <path class="cls-17" d="m853.93,933.93l-1.62-.59c-12.93,1.74-26.4-.63-37.98-6.66,9.59-7.41,22.81-9.86,34.4-6.36-8.55-10.09-9.75-25.78-2.82-37.05,10.68,9.26,15.19,24.64,12.27,38.36-.8,3.83-2.2,7.52-4.21,10.92l-.04,1.39Z"/>
        <path class="cls-15" d="m976.24,1036.81c5.33-3.01,8.15-9.32,8.37-15.43.21-5.81-1.59-11.47-3.79-16.85.48,9.66-3.09,18.62-14.32,21.15-16.81,3.8-34.1-7.72-46.41-17.88-.43-.35-.85-.72-1.28-1.08-.55,3.39-.52,6.84.25,10.24l-1.04,1.46c12,8.42,25.25,14.96,39.4,18.8,6.22,1.68,13.2,2.75,18.82-.41Z"/>
        <path class="cls-21" d="m918.82,1006.73c-15.26-12.72-29.78-27.09-41.44-43.19-8-11.04-17.18-25.75-15.54-40.06-.76-.01-1.51-.06-2.27-.06l-1.39-1.8c-.8,3.83-2.2,7.52-4.21,10.92l-.04,1.39c10.04,23.13,22.97,45.24,40.18,63.66,7.22,7.71,15.24,14.77,23.92,20.84l1.04-1.46c-.77-3.4-.81-6.85-.25-10.24Z"/>
        <path class="cls-18" d="m853.97,932.54c2.01-3.4,3.41-7.09,4.21-10.92.7-3.26.96-6.62.83-9.97-6.76,14.24-20.43,23.86-38.24,17.32-2.18-.8-3.63-2.13-4.48-3.7-.67.45-1.32.91-1.96,1.41,11.58,6.03,25.05,8.4,37.98,6.66l1.62.59.04-1.39Z"/>
        <path class="cls-19" d="m859.59,923.58c21.75.18,43.17,5.98,62.22,16.45,18.88,10.39,35.39,25.21,47.36,43.16,2.98,4.46,5.67,9.11,8.05,13.92,2.68,5.43,5.23,11.13,6.49,17.08,1.28,6.05.88,12.59-2.68,17.83-3.7,5.45-9.95,7.07-16.23,6.41-6.09-.64-12.13-2.71-17.84-4.86-5.74-2.16-11.31-4.76-16.66-7.74-10.54-5.86-20.26-13.14-29.02-21.42-18.49-17.46-32.46-39.2-43.27-62.09-1.33-2.82-2.61-5.66-3.86-8.52-.13-.29-.55-.04-.42.25,10.43,23.97,23.94,46.93,42.22,65.79,17.01,17.55,38.4,31.66,62.23,37.82,5.64,1.46,12.05,2.41,17.49-.26,4.77-2.35,7.71-7.21,8.77-12.3,1.3-6.25-.28-12.68-2.5-18.53-2.03-5.36-4.54-10.55-7.34-15.54-10.74-19.09-26.48-35.22-44.94-46.95-18.53-11.78-40.01-19.24-61.98-20.61-2.68-.17-5.37-.24-8.06-.22-.2,0-.2.32,0,.32h0Z"/>
        <path class="cls-19" d="m957.6,968.18c-15.63,7.52-33.19,17.08-38.25,35.04-1.27,4.5-1.53,9.23-.52,13.81.07.31.54.18.47-.13-1.82-8.4.74-16.99,5.41-24.03,4.91-7.4,12.12-12.85,19.68-17.3,4.35-2.56,8.86-4.83,13.34-7.16.15-.08.02-.3-.13-.23h0Z"/>
        <path class="cls-19" d="m938.12,1008.6c-.23-8.44,7.92-15.77,16.31-14.02,8.22,1.72,13.5,10.2,10.94,18.26-1.39,4.38-4.6,7.78-8.75,9.67-.19.09-.06.42.15.35,7.85-2.82,12.06-12.83,8.47-20.36-3.76-7.89-14.02-11.3-21.31-6.08-3.9,2.79-6.39,7.35-6.18,12.19.01.24.39.25.38,0h0Z"/>
        <path class="cls-19" d="m926.35,974.05c-7.16,3.15-13.28,10.14-14.57,17.99-.03.17.21.24.26.07,1.09-3.9,2.66-7.51,5.23-10.68,2.47-3.05,5.62-5.54,9.17-7.24.1-.05.01-.19-.08-.14h0Z"/>
        <path class="cls-19" d="m917.77,979.42c-1.12-6.35-2.7-13.3-7.09-18.27-3.57-4.05-9.57-6.83-14.94-4.99-4.51,1.55-6.96,5.94-7.31,10.51-.41,5.21,1.67,10.09,5.43,13.65,5.11,4.83,12.08,6.95,18.76,8.54.23.05.32-.3.1-.35-10.05-2.44-22.87-7.23-23.82-19.25-.36-4.49,1.15-9.48,5.25-11.87,5.13-2.98,11.56-.61,15.48,3.28,4.99,4.96,6.34,12.24,7.96,18.8.03.13.22.07.19-.05h0Z"/>
        <path class="cls-19" d="m897.29,970.35c3.71,6.28,9.15,11.43,15.56,14.91.16.09.3-.16.14-.25-6.39-3.46-11.74-8.58-15.58-14.73-.05-.08-.16,0-.12.07h0Z"/>
        <path class="cls-19" d="m906.07,966.38c1.6,5.54,4.36,10.66,8.08,15.07.12.14.32-.06.2-.2-3.69-4.36-6.47-9.45-8.15-14.91-.03-.08-.16-.05-.13.04h0Z"/>
        <path class="cls-19" d="m854.07,932.59c7.42-12.02,6.64-28.22-.37-40.23-2.03-3.48-4.59-6.61-7.62-9.26-.11-.1-.27-.08-.35.05-6.96,11.49-5.76,27.03,2.85,37.33.07-.13.15-.25.22-.38-11.74-3.46-24.85-1.05-34.58,6.38-.13.1-.17.31,0,.4,11.68,6.04,25.06,8.4,38.09,6.68.29-.04.3-.5,0-.46-12.96,1.7-26.25-.61-37.86-6.62v.4c9.64-7.37,22.59-9.77,34.23-6.34.23.07.36-.22.22-.38-8.49-10.14-9.64-25.48-2.79-36.78-.12.02-.23.03-.35.05,10.59,9.27,15.1,24.41,12.23,38.09-.81,3.85-2.22,7.54-4.11,10.98-.07.12.11.22.18.11h0Z"/>
      </g>
      <g>
        <path class="cls-11" d="m1896.49,922.15c.22,2.24-1.35,4.23-2.94,5.85-5.73,5.86-12.74,10.46-20.4,13.37-.26.09-.54.2-.8.12-.41-.11-.61-.55-.76-.94-1.82-4.66-3.64-9.33-5.46-13.99-1.08-2.78-2.17-5.63-2.2-8.59-.03-2.98,1.22-6.16,3.84-7.58,2.97-1.63,6.92-.45,9.21,2.04,2.28,2.5,3.16,6.01,3.3,9.4l1.64.31c2.33-1.9,4.8-3.89,7.78-4.33,2.98-.44,6.5,1.35,6.79,4.34Z"/>
        <path class="cls-12" d="m1896.49,922.15c-.25-2.61-2.96-4.31-5.63-4.41-6.1,6.6-12.21,16.42-20.86,18.74.53,1.36,1.06,2.71,1.59,4.07.15.39.35.83.76.94.26.08.54-.03.8-.12,7.66-2.91,14.67-7.51,20.4-13.37,1.58-1.62,3.16-3.61,2.94-5.85Z"/>
        <path class="cls-19" d="m1880.46,921.83c.03-3.4-.92-7.05-3.27-9.6-1.98-2.15-5.16-3.4-8.05-2.68-3.1.77-4.93,3.72-5.38,6.73-.58,3.91,1.06,7.71,2.45,11.27,1.69,4.35,3.22,8.82,5.1,13.09.62,1.42,1.4,1.24,2.71.71,1.8-.71,3.56-1.52,5.27-2.41,3.53-1.84,6.87-4.05,9.95-6.58,1.58-1.3,3.1-2.68,4.53-4.15,1.13-1.17,2.28-2.49,2.78-4.07,1.06-3.31-1.53-6.01-4.65-6.58-3.92-.72-7.34,2.06-10.16,4.39-.27.22.11.59.38.38,2.48-2.02,5.48-4.48,8.89-4.28,3.06.18,6.04,2.64,4.98,5.94-.52,1.62-1.76,2.93-2.93,4.11-1.14,1.16-2.34,2.26-3.58,3.31-2.52,2.13-5.22,4.04-8.07,5.7-1.34.78-2.72,1.51-4.12,2.18-.64.3-1.28.6-1.93.88-.79.34-2.58,1.49-3.39.54-.56-.66-.83-2.12-1.15-2.93-.29-.75-.59-1.51-.88-2.26-.7-1.81-1.41-3.61-2.11-5.42-2.08-5.35-6.33-13.46-1.26-18.45,2.63-2.59,6.79-1.97,9.44.26,2.91,2.45,3.72,6.33,4.11,9.92.02.21.34.23.34,0h0Z"/>
      </g>
      <g>
        <path class="cls-11" d="m111.02,246.03c-1.34,2.8-3.75,4.91-6.19,6.84-7.29,5.82-15.22,10.86-23.59,14.97-.61.3-1.34.59-1.93.26-.35-.2-.55-.57-.73-.92-3.6-6.97-6.7-14.19-9.25-21.61-1.29-3.74-2.46-7.68-2.01-11.62.46-3.95,2.95-7.9,6.79-8.9,4.41-1.15,9.05,2.04,10.98,6.17,1.92,4.13,1.76,8.91,1.25,13.44l.41.25c3.32-2.98,7.04-5.51,11.02-7.51,3.96-2,9.32-3.25,12.4-.06,2.15,2.23,2.17,5.9.83,8.71Z"/>
        <path class="cls-12" d="m110.19,237.33c-1.28-1.33-2.96-1.88-4.77-1.93-2.83,13.2-17.14,23.25-30.07,25.11,1.03,2.25,2.1,4.48,3.24,6.67.18.35.38.72.73.92.59.33,1.32.04,1.93-.26,8.37-4.11,16.29-9.15,23.59-14.97,2.44-1.93,4.85-4.04,6.19-6.84,1.34-2.8,1.32-6.47-.83-8.71Z"/>
        <path class="cls-19" d="m86.6,244.65c.61-5.14.84-11.04-2.35-15.46-2.41-3.33-6.76-5.71-10.87-4.23s-6.21,5.85-6.43,9.93c-.32,5.94,2.41,11.97,4.54,17.38,1.05,2.65,2.16,5.27,3.34,7.86.65,1.43,1.32,2.84,2.01,4.25.56,1.13,1.04,2.53,1.83,3.52,1.34,1.68,4.2-.54,5.53-1.23,2.67-1.39,5.29-2.88,7.85-4.46,4.79-2.95,9.43-6.19,13.77-9.76,3.49-2.87,7-6.7,6.3-11.59-.32-2.23-1.64-4.19-3.72-5.12s-4.5-.75-6.66-.19c-2.72.7-5.24,2.07-7.63,3.53-2.69,1.63-5.21,3.52-7.57,5.61-.28.25.13.66.41.41,3.62-3.21,7.75-6.14,12.22-8.05,3.62-1.55,9.21-2.6,11.58,1.55,2.5,4.38-.59,9.16-3.81,12.1-3.61,3.29-7.7,6.14-11.77,8.82s-8.32,5.15-12.69,7.36c-.53.27-1.18.72-1.76.85-.93.2-1.7-.3-2.12-1.13-.61-1.18-1.2-2.38-1.78-3.58-1.12-2.33-2.19-4.69-3.2-7.07-2.04-4.8-4.07-9.75-5.36-14.81-1.17-4.62-1.23-9.95,2.28-13.62,3.7-3.87,9.31-2.59,12.55,1.16,3.76,4.35,3.53,10.59,3.02,15.96-.03.31.44.3.47,0h0Z"/>
      </g>
      <g>
        <path class="cls-11" d="m713.83,670.68c1.84,1.31,2.3,3.8,2.47,6.06.65,8.17-.5,16.48-3.35,24.16-.11.26-.2.53-.43.68-.35.24-.82.1-1.21-.04-4.71-1.7-9.42-3.4-14.13-5.1-2.8-1.01-5.67-2.07-7.92-4-2.27-1.94-3.83-4.97-3.19-7.88.73-3.3,4.21-5.51,7.6-5.6,3.38-.07,6.6,1.58,9.25,3.7l1.31-1.03c.1-3,.23-6.18,1.86-8.7,1.63-2.54,5.29-4.01,7.74-2.25Z"/>
        <path class="cls-12" d="m713.83,670.68c-2.13-1.53-5.19-.61-7.02,1.34.96,8.93,4.34,19.99.39,28.04,1.37.49,2.74.99,4.1,1.48.39.14.86.28,1.21.04.23-.15.33-.43.43-.68,2.85-7.68,4-15.99,3.35-24.16-.18-2.26-.64-4.75-2.47-6.06Z"/>
        <path class="cls-19" d="m703.05,682.55c-2.58-2.29-6.03-4.01-9.55-3.85-2.86.13-5.81,1.67-7.15,4.27-1.49,2.89-.44,6.25,1.59,8.59,2.46,2.84,6.2,4.1,9.62,5.34,4.33,1.56,8.66,3.13,12.99,4.69,1.09.39,2.08.77,2.64-.47.86-1.92,1.39-4.08,1.9-6.11,1.03-4.15,1.6-8.42,1.69-12.7.04-2.09,0-4.2-.23-6.28-.16-1.46-.45-2.98-1.26-4.23-1.79-2.77-5.34-2.61-7.77-.78-3.25,2.45-3.43,6.92-3.54,10.64,0,.34.52.34.53,0,.11-3.12.21-6.84,2.41-9.3,2.02-2.26,5.94-3.17,7.84-.26,1.66,2.54,1.43,6.39,1.42,9.29-.01,3.53-.36,7.06-1.02,10.53-.32,1.67-.72,3.33-1.19,4.96-.21.74-.44,1.48-.69,2.22-.36,1.07-.56,2.27-1.89,2.18-.84-.05-1.93-.7-2.73-.99-.76-.27-1.52-.55-2.28-.82-1.67-.6-3.34-1.21-5.01-1.81-5.53-2-14.89-4.17-15.14-11.55-.12-3.72,3.31-6.39,6.75-6.77,3.67-.42,6.98,1.48,9.87,3.5.16.11.35-.14.21-.27h0Z"/>
      </g>
      <g>
        <path class="cls-11" d="m407.31,643.37c1.23,2.85,1.23,6.06,1.08,9.16-.41,9.33-1.84,18.6-4.24,27.61-.18.66-.44,1.4-1.08,1.62-.38.13-.79.04-1.17-.06-7.61-1.87-15.09-4.29-22.36-7.25-3.67-1.49-7.41-3.2-10.07-6.14-2.67-2.95-4.01-7.42-2.24-10.97,2.03-4.08,7.49-5.47,11.88-4.21,4.37,1.27,7.86,4.53,10.94,7.89l.45-.15c-.05-4.46.48-8.93,1.59-13.24,1.1-4.3,3.68-9.15,8.12-9.38,3.1-.15,5.87,2.25,7.1,5.1Z"/>
        <path class="cls-12" d="m400.21,638.27c-1.84.09-3.36,1-4.59,2.32,8.08,10.82,6.23,28.21-.87,39.16,2.37.7,4.75,1.36,7.16,1.95.38.09.79.19,1.17.06.64-.22.9-.97,1.08-1.62,2.41-9.01,3.83-18.29,4.24-27.61.15-3.1.15-6.31-1.08-9.16-1.23-2.85-4.01-5.25-7.1-5.1Z"/>
        <path class="cls-19" d="m390.22,660.86c-3.23-3.58-7.1-7.29-12.02-8.24-3.74-.73-8.18.28-10.54,3.46-2.68,3.6-1.53,8.6,1.1,11.88,3.29,4.1,8.62,6.02,13.37,7.85,5.82,2.24,11.77,4.15,17.81,5.71.92.24,2.27.86,3.23.51.92-.34,1.15-1.45,1.37-2.28.79-2.95,1.45-5.94,2.02-8.95,1.14-6.03,1.86-12.15,2.12-18.29.21-4.75-.05-10.33-4.38-13.3-4.23-2.9-8.62-.22-10.77,3.77-1.31,2.43-1.97,5.13-2.47,7.83-.62,3.32-.9,6.68-.88,10.05,0,.38.59.38.59,0-.04-5.03.47-10.35,2.18-15.11,1.28-3.57,4.13-7.97,8.55-7.11,5.3,1.02,6.65,7.09,6.64,11.64-.01,5.28-.6,10.62-1.39,15.83-.39,2.55-.85,5.08-1.39,7.6-.27,1.26-.56,2.51-.86,3.76-.15.63-.31,1.25-.47,1.87-.31,1.19-.35,2.12-2.07,2.05-1.18-.04-2.57-.65-3.72-.96-1.24-.33-2.47-.68-3.69-1.05-2.53-.75-5.04-1.56-7.53-2.44-4.6-1.61-9.48-3.22-13.64-5.82-3.85-2.41-7.22-6.51-6.6-11.33.64-4.96,5.79-7.26,10.33-6.78,5.21.56,9.33,4.53,12.76,8.15.21.22.54-.11.34-.34h0Z"/>
      </g>
      <g>
        <path class="cls-11" d="m1202.97,995.36c1.23,2.85,1.23,6.06,1.08,9.16-.41,9.32-1.84,18.6-4.24,27.61-.18.66-.44,1.4-1.08,1.62-.38.13-.79.04-1.17-.06-7.61-1.87-15.09-4.29-22.36-7.25-3.67-1.49-7.41-3.2-10.07-6.14-2.67-2.95-4.01-7.42-2.24-10.97,2.03-4.08,7.49-5.47,11.88-4.21,4.37,1.27,7.86,4.53,10.94,7.89l.45-.15c-.06-4.46.48-8.93,1.59-13.24,1.1-4.3,3.68-9.15,8.12-9.38,3.1-.15,5.87,2.25,7.1,5.1Z"/>
        <path class="cls-12" d="m1195.87,990.27c-1.84.09-3.36,1-4.59,2.32,8.08,10.82,6.23,28.21-.87,39.16,2.37.7,4.75,1.36,7.16,1.95.38.09.79.19,1.17.06.64-.22.9-.97,1.08-1.62,2.41-9.01,3.83-18.29,4.24-27.61.15-3.1.15-6.31-1.08-9.16s-4.01-5.25-7.1-5.1Z"/>
        <path class="cls-19" d="m1185.88,1012.86c-3.23-3.58-7.1-7.29-12.02-8.24-3.74-.73-8.18.28-10.54,3.46-2.68,3.6-1.53,8.6,1.1,11.88,3.29,4.1,8.62,6.02,13.37,7.85,5.82,2.24,11.77,4.15,17.81,5.71.92.24,2.27.86,3.23.51.92-.34,1.15-1.45,1.37-2.28.79-2.95,1.45-5.94,2.02-8.95,1.14-6.03,1.86-12.15,2.12-18.29.21-4.75-.05-10.33-4.38-13.3-4.23-2.9-8.62-.22-10.77,3.77-1.31,2.43-1.96,5.13-2.47,7.83-.62,3.32-.9,6.68-.88,10.05,0,.38.59.38.59,0-.04-5.03.47-10.35,2.18-15.11,1.28-3.57,4.13-7.97,8.55-7.11,5.3,1.02,6.65,7.09,6.64,11.64-.01,5.28-.6,10.62-1.39,15.83-.39,2.55-.85,5.08-1.39,7.6-.27,1.26-.56,2.51-.86,3.76-.15.63-.31,1.25-.47,1.87-.31,1.19-.35,2.12-2.07,2.05-1.18-.04-2.57-.65-3.72-.96-1.24-.33-2.47-.68-3.69-1.05-2.53-.75-5.04-1.56-7.53-2.44-4.6-1.61-9.48-3.22-13.64-5.82-3.85-2.41-7.22-6.51-6.6-11.33.64-4.96,5.79-7.26,10.33-6.78,5.21.56,9.33,4.53,12.76,8.15.21.22.54-.11.34-.34h0Z"/>
      </g>
      <g>
        <path class="cls-11" d="m1535.99,635.3c2.11.78,3.21,3.07,3.97,5.2,2.75,7.72,3.81,16.04,3.06,24.2-.04.27-.06.57-.24.77-.28.32-.76.31-1.18.27-4.99-.41-9.98-.83-14.97-1.24-2.97-.25-6.01-.52-8.69-1.79-2.69-1.28-5-3.8-5.13-6.78-.16-3.38,2.63-6.41,5.88-7.38,3.25-.95,6.79-.2,9.9,1.16l.99-1.33c-.69-2.92-1.39-6.03-.47-8.89.91-2.87,4.06-5.25,6.88-4.19Z"/>
        <path class="cls-12" d="m1535.99,635.3c-2.46-.92-5.17.77-6.43,3.12,3.25,8.38,9.4,18.17,7.69,26.97,1.45.12,2.9.24,4.35.36.41.04.9.05,1.18-.27.18-.2.2-.5.24-.77.75-8.16-.31-16.48-3.06-24.2-.76-2.13-1.85-4.42-3.97-5.2Z"/>
        <path class="cls-19" d="m1528.67,649.56c-3.22-1.61-7.26-2.4-10.72-1.06-2.66,1.03-4.98,3.41-5.38,6.32-.39,2.86,1.28,5.49,3.52,7.13,3.09,2.26,7.09,2.56,10.78,2.87,4.51.38,9.01.75,13.52,1.13,1.1.09,2.56.46,2.88-.93.44-1.91.29-4.16.27-6.11-.05-4.12-.54-8.25-1.47-12.26-.49-2.11-1.09-4.2-1.83-6.23-.5-1.39-1.1-2.81-2.09-3.93-2.29-2.6-5.85-1.97-7.97.5-2.75,3.22-1.75,7.73-.86,11.46.08.33.59.19.52-.14-.76-3.26-1.7-7.23.28-10.25,1.84-2.81,5.55-3.78,7.81-.91,1.88,2.38,2.63,5.86,3.35,8.75.85,3.43,1.38,6.93,1.58,10.46.09,1.54.11,3.09.07,4.64-.02.77-.06,1.55-.11,2.32-.02.37.04,1.05-.11,1.39-.43.96-.9.76-1.6.71-3.54-.27-7.08-.59-10.62-.88-5.7-.47-14.8-.23-17.07-6.95-1.11-3.28.91-6.55,3.79-8.1,3.59-1.93,7.73-.91,11.33.39.18.07.31-.23.13-.31h0Z"/>
      </g>
      <g>
        <path class="cls-11" d="m1898.77,192.33c-.3,2.23-2.29,3.81-4.2,5.01-6.93,4.39-14.81,7.24-22.94,8.31-.28.03-.57.07-.8-.07-.37-.2-.47-.68-.53-1.09-.7-4.96-1.39-9.92-2.08-14.88-.41-2.95-.82-5.98-.16-8.87.65-2.91,2.6-5.71,5.48-6.49,3.26-.9,6.84,1.15,8.5,4.11,1.64,2.96,1.69,6.58,1.05,9.91l1.52.68c2.7-1.32,5.57-2.68,8.57-2.42,3,.25,6.01,2.81,5.6,5.79Z"/>
        <path class="cls-12" d="m1898.77,192.33c.36-2.6-1.89-4.88-4.46-5.58-7.46,5.01-15.66,13.16-24.62,13.43.2,1.44.4,2.88.61,4.32.05.41.15.89.53,1.09.24.13.53.09.8.07,8.13-1.07,16.01-3.92,22.94-8.31,1.91-1.21,3.9-2.78,4.2-5.01Z"/>
        <path class="cls-19" d="m1883.25,188.33c.84-3.4.74-7.36-1.15-10.41-1.55-2.51-4.48-4.39-7.5-4.14-2.94.25-5.17,2.53-6.26,5.15-1.52,3.64-.82,7.72-.3,11.5.62,4.48,1.25,8.96,1.88,13.44.2,1.44.42,2.24,2.01,2.05,2.03-.25,4.05-.66,6.04-1.15,3.79-.94,7.48-2.27,11-3.96,1.85-.89,3.65-1.87,5.39-2.96,1.34-.83,2.7-1.75,3.66-3.03,2.12-2.82.77-6.22-2.18-7.77-3.75-1.97-7.93,0-11.37,1.69-.31.15-.04.61.27.46,3-1.46,6.69-3.24,10.07-1.98,3.3,1.24,4.91,4.82,2.39,7.66-1.98,2.23-5.1,3.7-7.74,5.02-2.99,1.49-6.11,2.72-9.32,3.66-1.4.41-2.82.77-4.26,1.07-1.38.29-4.62,1.38-5.29-.21-.31-.72-.26-1.85-.37-2.64-.12-.88-.25-1.76-.37-2.64-.25-1.76-.49-3.52-.74-5.28-.8-5.75-3.21-14.89,2.97-18.65,3.05-1.86,6.82-.45,8.93,2.16,2.48,3.07,2.37,7.21,1.91,10.9-.02.19.29.23.34.05h0Z"/>
      </g>
      <g>
        <path class="cls-11" d="m1270.92,658.04c-.3,2.23-2.29,3.81-4.2,5.01-6.93,4.39-14.81,7.24-22.94,8.31-.28.03-.57.07-.8-.07-.37-.2-.47-.68-.53-1.09-.7-4.96-1.39-9.92-2.08-14.88-.41-2.95-.82-5.98-.16-8.87.65-2.91,2.6-5.71,5.48-6.49,3.26-.9,6.84,1.15,8.5,4.11,1.64,2.96,1.69,6.58,1.05,9.91l1.52.68c2.7-1.32,5.57-2.68,8.57-2.42,3,.25,6.01,2.81,5.6,5.79Z"/>
        <path class="cls-12" d="m1270.92,658.04c.36-2.6-1.89-4.88-4.46-5.58-7.46,5.01-15.66,13.16-24.62,13.43.2,1.44.4,2.88.61,4.32.05.41.15.89.53,1.09.24.13.53.09.8.07,8.13-1.07,16.01-3.92,22.94-8.31,1.91-1.21,3.9-2.78,4.2-5.01Z"/>
        <path class="cls-19" d="m1255.39,654.04c.84-3.4.74-7.36-1.15-10.41-1.55-2.51-4.48-4.39-7.5-4.14-2.94.25-5.17,2.53-6.26,5.15-1.52,3.64-.82,7.72-.29,11.5.62,4.48,1.25,8.96,1.88,13.44.2,1.44.42,2.24,2.01,2.05,2.03-.25,4.05-.66,6.04-1.15,3.79-.94,7.48-2.27,11-3.96,1.85-.89,3.65-1.87,5.39-2.96,1.34-.83,2.7-1.75,3.66-3.03,2.12-2.82.77-6.22-2.18-7.77-3.75-1.97-7.93,0-11.37,1.69-.31.15-.04.61.27.46,3-1.46,6.69-3.25,10.07-1.98,3.3,1.24,4.91,4.82,2.39,7.66-1.98,2.23-5.1,3.7-7.74,5.02-2.99,1.49-6.11,2.72-9.32,3.66-1.4.41-2.82.77-4.26,1.07-1.38.29-4.62,1.38-5.29-.21-.31-.72-.26-1.85-.37-2.64-.12-.88-.25-1.76-.37-2.64-.25-1.76-.49-3.52-.74-5.28-.8-5.75-3.21-14.89,2.97-18.65,3.05-1.86,6.82-.45,8.93,2.16,2.48,3.07,2.37,7.21,1.91,10.9-.02.19.29.23.34.05h0Z"/>
      </g>
      <g>
        <path class="cls-11" d="m1532.85,228.81c-1.95,2.42-4.78,3.91-7.6,5.23-8.44,3.99-17.31,7.06-26.4,9.13-.66.15-1.44.26-1.94-.2-.29-.28-.4-.68-.5-1.07-1.9-7.61-3.25-15.35-4.02-23.16-.4-3.94-.62-8.04.73-11.77,1.36-3.74,4.69-7.01,8.66-7.1,4.56-.1,8.34,4.07,9.27,8.54.92,4.46-.34,9.07-1.88,13.36l.34.33c3.92-2.13,8.12-3.74,12.45-4.77,4.32-1.04,9.82-1.01,12.08,2.8,1.58,2.67.75,6.24-1.19,8.66Z"/>
        <path class="cls-12" d="m1534.05,220.15c-.94-1.59-2.45-2.51-4.19-2.98-5.8,12.19-22.04,18.68-35.05,17.5.49,2.42,1.01,4.84,1.61,7.24.1.38.2.79.5,1.07.49.46,1.27.34,1.94.2,9.09-2.07,17.96-5.15,26.4-9.13,2.81-1.32,5.65-2.81,7.6-5.23,1.95-2.42,2.78-5.99,1.19-8.66Z"/>
        <path class="cls-19" d="m1509.41,221.85c1.78-4.88,3.36-10.55,1.27-15.6-1.57-3.8-5.27-7.11-9.61-6.61s-7.57,4.51-8.65,8.57c-1.45,5.47-.32,11.57.45,17.06.43,3.09.96,6.17,1.57,9.22.28,1.41.58,2.82.9,4.22.28,1.24.43,2.77.99,3.92.33.69.9.97,1.65.96,1.35-.02,2.81-.57,4.11-.9,2.86-.73,5.7-1.56,8.51-2.48,5.54-1.83,11.05-3.98,16.26-6.61,4.02-2.03,8.2-5.18,8.3-10.12s-4.55-7.08-8.88-6.99c-2.72.05-5.38.76-7.95,1.57-3.1.98-6.1,2.27-8.97,3.81-.33.18-.04.68.3.51,4.29-2.3,9.02-4.22,13.84-5.03,3.61-.61,8.57-.46,10.46,3.29,2.37,4.69-1.84,9.3-5.6,11.5-4.29,2.51-9.08,4.35-13.73,6.06s-9.59,3.21-14.51,4.39c-.56.13-1.13.3-1.7.39-1.11.17-1.62-.67-1.85-1.59-.31-1.24-.6-2.49-.87-3.74-.55-2.5-1.05-5.01-1.48-7.53-.89-5.16-1.73-10.45-1.84-15.7-.1-4.78,1-10.01,5.23-12.84s9.54-.62,11.93,3.7c2.84,5.13,1.16,11.28-.61,16.46-.1.29.35.41.46.13h0Z"/>
      </g>
      <rect class="cls-1" width="1920" height="1080"/>
      <g class="cls-3">
        <g>
          <g>
            <path class="cls-16" d="m1335.13,800.97l.06-.95c5-1.08,8.64-5.71,9.86-10.67,1.23-4.96.41-10.19-.85-15.12-2.26-8.97-6.21-17.88-13.29-23.84-2.1-1.77-4.53-3.28-7.22-3.92-5.11-1.2-10.67,1.06-14.2,4.94-3.53,3.9-5.23,9.2-5.58,14.45-.56,8.7,2.51,17.59,8.31,24.11,5.79,6.48,14.2,10.55,22.9,11Zm-58.07,91.62c-9.49-9.59-17.67-20.47-24.17-32.28-6.66-12.1-11.63-25.7-10.34-39.43.35-3.67,1.23-7.31,2.64-10.76,2.47-6.27,6.54-11.88,11.83-15.7,2.74-1.99,5.81-3.47,9.14-4.34,14.3-3.68,28.96,4.82,39.57,15.09-10.76-11.71-16.21-28.13-14.58-43.95.93-9.05,4.24-18.06,10.24-24.83,1.12-1.31,2.37-2.55,3.72-3.67,4.21-3.51,9.47-5.85,14.87-6.64,5.31-.79,10.76-.12,15.51,2.37,14.68,7.68,17.13,27.26,17.79,43.79,1.77-12.75,3.95-25.83,10.65-36.81,6.37-10.46,17.81-18.67,29.9-18.17.62.04,1.25.08,1.87.15,6.27.71,11.75,3.78,16.15,8.2,6.19,6.25,10.17,15.2,10.84,24.1.89,11.9-2.78,23.52-7.95,34.44-2.18,2.47-3.78,5.44-4.51,8.8,1.58-2.87,3.11-5.81,4.51-8.8,6.02-6.73,16.46-9.88,25.56-7.76,1.04.25,2.04.56,3.05.95,4.86,1.87,9.01,4.98,12.39,8.87,5.61,6.48,9.07,15.12,9.97,23.75,1.49,13.77-2.47,27.57-7.35,40.53-7.81,20.78-18.15,40.57-30.71,58.86,6.98,100.99,19.2,201.62,36.58,301.34,1.23,7.06,2.43,14.64-.56,21.14-5.54,12.12-21.65,14.04-34.96,14.26-33.57.52-67.14,1.06-100.7,1.58-19.14.31-38.41.6-57.26-2.68-4.49-.79-9.11-1.83-12.71-4.61-8.95-6.89-7.87-20.47-6.02-31.62,17.34-104.41,25.74-210.32,25.04-316.17Zm168.77-58.22c5.32-5.07,7.72-12.71,7.58-20.08-.12-6.15-2.22-12.75-7.35-16.17-4.65-3.11-11.02-2.87-15.99-.31-5,2.55-8.7,7.12-11.25,12.1-2.64,5.15-4.19,11.09-3.11,16.78,1.08,5.67,5.23,11,10.86,12.33l.17-.41c6.33,2.53,14.08.5,19.08-4.24Zm-26.02,43.54c2.51-11.21-2.91-22.65-9.32-32.22-12.25-18.29-31.81-34.88-53.67-32.39-8.08.91-15.68,4.42-22.48,8.87-17.54,11.54-30.35,29.98-35.05,50.43-1.91,8.33-1.33,19.2,6.46,22.75,2.45,1.1,5.23,1.25,7.89.98,8.51-.81,16.24-5.48,22.59-11.21,6.6-5.94,14.04-13.79,22.59-11.94l-.04.14c5.67,5.13,9.36,12.19,15.09,17.29,7.14,6.37,17.48,9.13,26.74,6.73s17.09-10.09,19.2-19.43Zm-25.06-84.02c9.86-10.73,13.5-26.82,9.24-40.74-1.76-5.77-5.46-11.67-11.34-12.93-6.93-1.5-13.37,4.05-17.38,9.9-7.31,10.63-10.86,24.56-6.46,36.69,1.76,4.84,5.15,9.55,9.99,11.05,2.04,1.79,5.13,2.28,7.79,1.58,3.24-.83,5.9-3.09,8.16-5.56Zm-100.63,41.77c.25-5.98-2.26-11.85-6-16.49-1.66-2.06-3.57-3.94-5.81-5.34-7.06-4.44-16.98-3.4-23.23,2.12-6.25,5.5-8.6,14.87-6.12,22.82,2.49,7.97,9.49,14.22,17.56,16.24,2.33.6,4.77.85,7.12.39,4.46-.87,7.99-4.19,11.27-7.35l-.27-.31c3.32-3.03,5.29-7.56,5.48-12.08Z"/>
            <path class="cls-7" d="m1455.96,773.27c.44,4.19.89,8.37,1.33,12.54l-1.54.41c-3.38-3.9-7.52-7-12.39-8.87-1-.39-2.01-.69-3.05-.95l.02-.1c2.16-1.66,4.32-3.34,6.5-5,2.43-1.85,6.23-3.61,8.16-1.22.69.89.85,2.06.96,3.18Z"/>
            <path class="cls-11" d="m1426.75,838.61l-.17.41c-5.63-1.33-9.78-6.66-10.86-12.33-1.08-5.69.46-11.63,3.11-16.78,2.55-4.98,6.25-9.55,11.25-12.1,4.98-2.57,11.34-2.8,15.99.31,5.13,3.41,7.23,10.01,7.35,16.17.14,7.37-2.26,15.01-7.58,20.08-5,4.75-12.75,6.77-19.08,4.24Z"/>
            <path class="cls-11" d="m1358.83,873.18c-8.55-1.85-15.99,6-22.59,11.94-6.35,5.73-14.08,10.4-22.59,11.21-2.66.27-5.44.12-7.89-.98-7.79-3.55-8.37-14.41-6.46-22.75,4.71-20.45,17.52-38.89,35.05-50.43,6.79-4.46,14.39-7.97,22.48-8.87,21.86-2.49,41.42,14.1,53.67,32.39,6.4,9.57,11.83,21.01,9.32,32.22-2.1,9.34-9.94,17.03-19.2,19.43s-19.6-.37-26.74-6.73c-5.73-5.09-9.41-12.15-15.09-17.29l.04-.14Z"/>
            <path class="cls-7" d="m1410.7,717.88c.6,2.37,1.18,4.77,1.76,7.14l-.6.6c-4.4-4.42-9.88-7.49-16.15-8.2-.62-.08-1.25-.12-1.87-.15,1.68-2.14,3.41-4.36,5.79-5.73,2.41-1.39,5.65-1.7,7.87-.02,1.93,1.47,2.62,4.01,3.2,6.37Z"/>
            <path class="cls-11" d="m1378.79,797.86c-4.84-1.5-8.24-6.21-9.99-11.05-4.4-12.13-.85-26.06,6.46-36.69,4.01-5.85,10.46-11.4,17.38-9.9,5.88,1.25,9.59,7.16,11.34,12.93,4.26,13.93.62,30.02-9.24,40.74-2.26,2.47-4.92,4.73-8.16,5.56-2.66.69-5.75.21-7.79-1.58Z"/>
            <path class="cls-11" d="m1344.2,774.23c1.25,4.94,2.08,10.17.85,15.12-1.22,4.96-4.86,9.59-9.86,10.67l-.06.95c-8.7-.44-17.11-4.51-22.9-11-5.81-6.52-8.87-15.41-8.31-24.11.35-5.25,2.04-10.55,5.58-14.45,3.53-3.88,9.09-6.13,14.2-4.94,2.68.64,5.11,2.14,7.22,3.92,7.08,5.96,11.03,14.87,13.29,23.84Z"/>
            <path class="cls-7" d="m1319.86,725.19l.14.89c-5.4.79-10.67,3.13-14.87,6.64-1.35,1.12-2.6,2.35-3.72,3.67l-.19-.17c-.48-4.03-.31-8.16.52-12.13.37-1.76,1-3.67,2.57-4.55,1.62-.91,3.65-.39,5.4.27,3.59,1.37,7.02,3.18,10.17,5.4Z"/>
            <path class="cls-11" d="m1288.64,847.73l.27.31c-3.28,3.16-6.81,6.48-11.27,7.35-2.35.46-4.78.21-7.12-.39-8.06-2.03-15.07-8.28-17.56-16.24-2.49-7.95-.13-17.32,6.12-22.82,6.25-5.52,16.17-6.56,23.23-2.12,2.24,1.41,4.15,3.28,5.81,5.34,3.74,4.65,6.25,10.51,6,16.49-.19,4.51-2.16,9.05-5.48,12.08Z"/>
            <path class="cls-7" d="m1256.52,793.85l.5.56c-5.29,3.82-9.36,9.43-11.83,15.7l-.71-.29c-2.7-4.17-4.17-9.14-4.15-14.12,0-1.23.17-2.66,1.18-3.4.66-.48,1.5-.56,2.3-.6,4.32-.17,8.68.56,12.71,2.14Z"/>
            <path class="cls-22" d="m1427.66,909.35c12.56-18.29,22.9-38.08,30.71-58.86,4.88-12.96,8.84-26.76,7.35-40.53-.91-8.62-4.36-17.27-9.97-23.75-3.38-3.9-7.52-7-12.39-8.87-1-.39-2.01-.69-3.05-.95-9.11-2.12-19.54,1.02-25.56,7.76-1.23,2.62-2.56,5.18-3.94,7.71,1.02-.56,2.06-1.09,3.13-1.57,11.17-4.98,20.88-1.66,27.72,5.97,1.56.36,3.05.95,4.4,1.85,5.13,3.41,7.23,10.01,7.35,16.17.07,3.56-.47,7.17-1.63,10.54-.14,24.25-18.06,48.23-28.8,68.42-9.68,18.21-10.99,35.75-9.14,56.02,1.96,21.43,3.23,42.84,4.45,64.33,2.63,46.31,5.64,92.63,9.31,138.87,1.69,21.29,1.54,42.68,3.31,63.93.81,9.76,1.94,19.69,1.96,29.55,12.34-.58,25.84-3.24,30.81-14.12,2.99-6.5,1.79-14.08.56-21.14-17.38-99.72-29.59-200.35-36.58-301.34Z"/>
            <path class="cls-22" d="m1334.97,741.58c4.51,5.08,7.8,10.93,10.24,17.17,1.44-3.62,3.02-7.18,4.77-10.6-2.48-8.39-6.79-15.68-14.48-19.7-4.75-2.49-10.21-3.16-15.51-2.37-2.92.43-5.79,1.32-8.48,2.59,8.76,1.55,16.89,5.53,23.45,12.92Z"/>
            <path class="cls-22" d="m1422.7,749.71c-.68-8.89-4.65-17.84-10.84-24.1-4.4-4.42-9.88-7.49-16.15-8.2-.62-.08-1.25-.12-1.87-.15-7.12-.3-14.01,2.45-19.77,6.87,6.42-2.2,13.45-1.87,20.57,2.65,16.24,10.32,14.96,33.15,12.58,49.69-1.01,7-2.51,13.87-4.23,20.67,2.36-1.88,4.85-3.61,7.51-5.1.81-2.98,2.27-5.66,4.25-7.9,5.17-10.92,8.84-22.53,7.95-34.44Z"/>
            <path class="cls-8" d="m1455.96,773.27c.44,4.19.89,8.37,1.33,12.54l-1.54.41c-3.38-3.9-7.52-7-12.39-8.87-1-.39-2.01-.69-3.05-.95l.02-.1c2.16-1.66,4.32-3.34,6.5-5,2.43-1.85,6.23-3.61,8.16-1.22.69.89.85,2.06.96,3.18Z"/>
            <path class="cls-12" d="m1448.45,807.31c2.38,5.82,3.36,11.67,3.33,17.51,1.16-3.36,1.7-6.98,1.63-10.54-.12-6.15-2.22-12.75-7.35-16.17-1.34-.9-2.84-1.49-4.4-1.85,2.76,3.07,5.06,6.82,6.78,11.04Z"/>
            <path class="cls-8" d="m1410.7,717.88c.6,2.37,1.18,4.77,1.76,7.14l-.6.6c-4.4-4.42-9.88-7.49-16.15-8.2-.62-.08-1.25-.12-1.87-.15,1.68-2.14,3.41-4.36,5.79-5.73,2.41-1.39,5.65-1.7,7.87-.02,1.93,1.47,2.62,4.01,3.2,6.37Z"/>
            <path class="cls-8" d="m1311.51,728.67c2.69-1.27,5.56-2.16,8.48-2.59l-.14-.89c-3.14-2.22-6.58-4.03-10.17-5.4-1.76-.66-3.78-1.18-5.4-.27-1.56.89-2.2,2.8-2.57,4.55-.26,1.27-.44,2.55-.57,3.84,3.51-.07,6.98.15,10.36.75Z"/>
            <path class="cls-19" d="m1244.65,809.74c-1.43-2.33-2.56-4.84-3.25-7.49-.37-1.41-.62-2.86-.75-4.31-.1-1.24-.22-2.58.06-3.81.37-1.61,1.57-2.1,3.09-2.17,1.38-.06,2.78-.02,4.15.11,2.91.27,5.76.96,8.49,2.02.28.11.4-.34.12-.45-3.02-1.17-6.2-1.89-9.44-2.11-2.16-.14-5.68-.66-6.69,1.85-.45,1.12-.38,2.42-.32,3.61.07,1.5.28,3,.61,4.46.68,3.02,1.89,5.9,3.6,8.49.13.2.46.02.33-.19h0Z"/>
            <path class="cls-19" d="m1301.3,736.21c-.26-2.95-.23-6.01.12-8.95.29-2.38.57-6.07,2.86-7.47,2.46-1.51,6.04.42,8.32,1.48,2.52,1.17,4.76,2.69,7.15,4.08.18.11.4-.16.23-.3-2.34-1.94-5.28-3.38-8.05-4.59-2.29-1-5.47-2.55-7.89-1.07-2.24,1.37-2.62,4.58-2.96,6.92-.48,3.33-.47,6.62.02,9.92.01.1.19.08.18-.02h0Z"/>
            <path class="cls-19" d="m1393.85,717.46c2.91-3.53,7.16-8.6,12.38-6.42,2.38.99,3.36,3.48,3.98,5.8.73,2.73,1.35,5.5,2.03,8.24.07.29.52.17.45-.12-.77-3.1-1.38-6.29-2.37-9.33-.71-2.19-1.93-4.29-4.2-5.1-5.31-1.9-9.71,2.96-12.49,6.77-.09.12.12.28.21.16h0Z"/>
            <path class="cls-19" d="m1440.41,776.42c2.32-1.71,4.56-3.53,6.9-5.21,1.65-1.19,4.17-2.65,6.28-1.89,1.28.46,1.83,1.71,2.04,2.97.26,1.52.35,3.08.51,4.62.32,2.97.62,5.95.95,8.92.03.27.46.28.43,0-.35-3.41-.73-6.83-1.09-10.24-.24-2.2-.07-5.53-2.51-6.58-2.01-.86-4.43.3-6.11,1.38-2.65,1.7-5.11,3.84-7.57,5.81-.13.1.04.33.18.23h0Z"/>
          </g>
          <g>
            <path class="cls-7" d="m96.82,697.99s-.03.03-.05.05c-4.81,3.7-8.31,8.7-10.56,14.33l-.43-.17c-3.96-2.83-4.83-9.13-1.78-12.94,3-3.73,9.18-4.33,12.83-1.27Z"/>
            <path class="cls-7" d="m149.49,625.94l.38,1.08c-6.61,1.87-12.88,5.75-17.68,10.91l-.8-1.27c.92-3.88,1.83-7.75,2.75-11.63.3-1.27.68-2.65,1.73-3.43,1.12-.83,2.67-.72,4.03-.43,3.53.75,6.86,2.4,9.58,4.76Z"/>
            <path class="cls-7" d="m231,636.67l-.65.92c-5.15-3.51-11.36-5.48-17.49-5.21v-.27c3-3.81,7.3-8.06,11.91-6.6,4.3,1.37,5.61,6.7,6.23,11.16Z"/>
            <path class="cls-7" d="m269.09,673.06c1.62,4.06,2.08,8.58,1.32,12.88l-1.3.15c-3.15-3.8-7.41-6.81-12.03-8.46,1.92-2.63,4.4-4.86,7.2-6.5.73-.43,1.57-.83,2.4-.7,1.23.22,1.95,1.47,2.42,2.63Z"/>
            <path class="cls-9" d="m280.53,1059.49c1.27,9.16,2.45,18.92.83,27.85h-.02l-1.93-.37c-25.2,8.23-52.31,8.58-78.71,6.26-3.73-.33-7.58-.73-10.91-2.47-3.33-1.75-6.06-5.11-5.93-8.88.18-5.63,6.15-9.03,11.31-11.28,26.65-11.56,53.77-22.01,81.3-31.3l1.32-.17c.88,6.78,1.8,13.56,2.75,20.34Z"/>
            <path class="cls-5" d="m117.69,795.52c-6.51-7.45-12.56-15.31-18.07-23.51-7.61-11.33-14.36-23.69-16.09-37.22-.97-7.5-.12-15.44,2.68-22.42,2.25-5.63,5.75-10.63,10.56-14.33.02-.02.03-.03.05-.05,10.83-8.25,28.62-7.25,36.3,4-10.01-16.14-14.98-36.83-7.4-54.24,1.57-3.6,3.8-6.91,6.48-9.81,4.8-5.16,11.06-9.05,17.68-10.91,7.66-2.17,15.79-1.67,22.67,2.57,10.01,6.16,14.98,18.04,17.48,29.54-2-11.26,6.36-22.99,17.41-25.95,1.78-.48,3.6-.75,5.43-.8,6.13-.27,12.34,1.7,17.49,5.21,2.8,1.9,5.28,4.26,7.28,6.98,6.8,9.2,8.26,21.72,5.13,32.73,4.66-1.65,9.68-1.35,14.31.32,4.61,1.65,8.88,4.66,12.03,8.46.33.38.65.78.95,1.2,6.16,8.33,7.96,19.19,7.75,29.55-.52,24.22-10.83,47.09-23.14,68.03l.88.52c.37,8.46.78,16.93,1.23,25.37l-.95.05c-16.28,1.65-32.5,3.68-48.68,6.08-2.33.33-5.18,1.15-5.63,3.47-.32,1.62.75,3.17,1.88,4.35,5.01,5.31,12.14,8.08,19.24,9.88,11.13,2.85,22.76,3.68,34.18,2.48l1.42-.1c.58,9.41,1.22,18.81,1.88,28.22l-1.27.08c-24.09,15.93-55.16,15.54-82.49,24.87-1.97.68-4.23,1.77-4.5,3.85-.13,1.13.42,2.25,1.07,3.2,3.9,5.66,11.18,7.71,17.91,9.08,23.59,4.78,47.93,5.93,71.87,3.38l.92-.08c1.3,14.93,2.7,29.85,4.23,44.76l-1.37.13c-14.66,10.35-30.74,18.67-47.63,24.69-7.7,2.73-15.71,5.08-22.22,10-2.35,1.75-4.56,4.03-5.05,6.91-.55,3.22,1.25,6.46,3.8,8.5,2.53,2.02,5.73,3.03,8.88,3.83,22.64,5.85,46.51,3.68,69.67.45,1.23,10.11,2.5,20.22,3.85,30.32l-1.32.17c-27.52,9.3-54.64,19.74-81.3,31.3-5.16,2.25-11.13,5.65-11.31,11.28-.13,3.76,2.6,7.13,5.93,8.88,3.33,1.73,7.18,2.13,10.91,2.47,26.4,2.32,53.51,1.97,78.71-6.26l1.93.37c-.8,4.48-2.33,8.76-4.9,12.63-5.06,7.6-13.46,12.29-21.92,15.78-28.07,11.54-59.32,12.46-89.64,10.86-17.14-.9-35.32-2.98-48.79-13.61-3.1-2.45-5.95-5.4-7.38-9.08-1.42-3.65-1.35-7.68-1.22-11.58.53-15.03,1.72-29.99,3.25-44.95h.03c19.22-1.38,38.25-5.61,56.24-12.53,3.02-1.15,6.38-2.8,7.18-5.93,1.08-4.28-3.27-7.85-7.1-10.08-15.69-9.11-32.2-17.04-49.73-21.74h-.02l-.65-.08c1.02-8.08,2.02-16.18,2.93-24.26l.13.02c27.49-1.67,54.81-6.1,81.41-13.21,3.88-1.03,8.31-2.63,9.55-6.46,1.73-5.36-4.08-10.03-9.26-12.24-10.06-4.28-20.87-6.51-31.39-9.51-15.63-4.45-30.75-10.66-45-18.46l-.58-.02c.52-13.74.57-27.52.17-41.26,24.06,1.6,48.39-1.22,71.43-8.26,2.08-.63,4.23-1.35,5.78-2.88,1.55-1.53,2.27-4.13,1.03-5.91-.53-.78-1.35-1.32-2.18-1.78-5.76-3.27-12.53-4.13-18.96-5.76-12.88-3.27-24.69-9.71-36.33-16.11-7.85-4.31-15.69-8.61-23.54-12.93l-1.15.13c-.88-7.56-1.9-15.09-3.07-22.61Z"/>
            <path class="cls-9" d="m267.85,954.32c1.85,18.19,3.88,36.37,6.08,54.51-23.16,3.23-47.03,5.4-69.67-.45-3.15-.8-6.35-1.82-8.88-3.83-2.55-2.03-4.35-5.28-3.8-8.5.48-2.88,2.7-5.16,5.05-6.91,6.51-4.91,14.53-7.26,22.22-10,16.89-6.01,32.97-14.34,47.63-24.69l1.37-.13Z"/>
            <path class="cls-9" d="m263.62,909.56l-.92.08c-23.94,2.55-48.28,1.4-71.87-3.38-6.73-1.37-14.01-3.42-17.91-9.08-.65-.95-1.2-2.07-1.07-3.2.27-2.08,2.53-3.17,4.5-3.85,27.34-9.33,58.41-8.95,82.49-24.87l1.27-.08c1.05,14.79,2.22,29.59,3.5,44.38Z"/>
            <path class="cls-9" d="m258.24,836.96l-1.42.1c-11.43,1.2-23.06.37-34.18-2.48-7.1-1.8-14.23-4.56-19.24-9.88-1.13-1.18-2.2-2.73-1.88-4.35.45-2.32,3.3-3.13,5.63-3.47,16.18-2.4,32.4-4.43,48.68-6.08l.95-.05c.45,8.73.93,17.48,1.47,26.2Z"/>
            <path class="cls-9" d="m201.47,940.88c5.18,2.22,10.99,6.88,9.26,12.24-1.23,3.83-5.66,5.43-9.55,6.46-26.6,7.11-53.92,11.54-81.41,13.21l-.13-.02c1.63-14.21,3.05-28.42,3.98-42.68.38-5.73.67-11.48.88-17.21l.58.02c14.24,7.8,29.37,14.01,45,18.46,10.51,3,21.32,5.23,31.39,9.51Z"/>
            <path class="cls-9" d="m202.92,854.57c1.23,1.78.52,4.38-1.03,5.91-1.55,1.53-3.7,2.25-5.78,2.88-23.04,7.05-47.38,9.86-71.43,8.26-.53-17.89-1.83-35.75-3.91-53.51l1.15-.13c7.85,4.31,15.69,8.61,23.54,12.93,11.64,6.4,23.46,12.84,36.33,16.11,6.43,1.63,13.19,2.5,18.96,5.76.83.47,1.65,1,2.18,1.78Z"/>
            <path class="cls-9" d="m110.78,1047.4h-.03c1.73-16.81,3.88-33.57,5.96-50.36l.65.08h.02c17.53,4.7,34.03,12.63,49.73,21.74,3.83,2.23,8.18,5.8,7.1,10.08-.8,3.13-4.16,4.78-7.18,5.93-17.99,6.91-37.02,11.14-56.24,12.53Z"/>
            <path class="cls-8" d="m147.84,627.68c.68-.24,1.35-.46,2.04-.66l-.38-1.08c-2.72-2.37-6.05-4.01-9.58-4.76-1.37-.28-2.92-.4-4.03.43-1.05.78-1.43,2.17-1.73,3.43-.37,1.56-.74,3.12-1.1,4.67,4.88-1.34,9.85-2.11,14.79-2.03Z"/>
            <path class="cls-8" d="m231,636.67l-.65.92c-5.15-3.51-11.36-5.48-17.49-5.21v-.27c3-3.81,7.3-8.06,11.91-6.6,4.3,1.37,5.61,6.7,6.23,11.16Z"/>
            <path class="cls-8" d="m269.09,673.06c1.62,4.06,2.08,8.58,1.32,12.88l-1.3.15c-3.15-3.8-7.41-6.81-12.03-8.46,1.92-2.63,4.4-4.86,7.2-6.5.73-.43,1.57-.83,2.4-.7,1.23.22,1.95,1.47,2.42,2.63Z"/>
            <path class="cls-10" d="m280.53,1059.49c-.95-6.78-1.87-13.56-2.75-20.34l-1.32.17c-7.38,2.49-14.72,5.07-22.04,7.73-.11,15.3-.59,30.61-1.79,45.85,9.08-1.18,18.04-3.06,26.77-5.91l1.93.37h.02c1.62-8.93.43-18.69-.83-27.85Z"/>
            <path class="cls-6" d="m253.79,962.68c4.33-2.58,8.57-5.31,12.69-8.22l1.37-.13c-1.53-14.91-2.93-29.84-4.23-44.76l-.92.08c-3.48.37-6.96.64-10.45.85.16,4.04.32,8.08.47,12.12.49,13.34.82,26.7,1.07,40.06Z"/>
            <path class="cls-6" d="m260.12,865.18c-.67-9.41-1.3-18.81-1.88-28.22l-1.42.1c-2.99.31-5.99.48-8.99.52,1.26,8.78,2.4,17.56,2.67,26.46.06,1.97.13,3.93.2,5.9,2.79-1.39,5.52-2.93,8.16-4.67l1.27-.08Z"/>
            <path class="cls-6" d="m191.46,647.5c6.98-9.11,18.94-12.08,29.09-6.04,14.35,8.55,15.21,29.21,13.48,46.83,7.65-1.57,15.55.29,22.35,6.92,10.88,10.6,13.46,26.89,10.19,41.18-3.36,14.7-12.33,27.06-18.04,40.8-4.68,11.27-5.04,22.99-4.03,34.82,3.77-.42,7.54-.83,11.32-1.21l.95-.05c-.45-8.45-.87-16.91-1.23-25.37l-.88-.52c12.31-20.94,22.62-43.81,23.14-68.03.22-10.36-1.58-21.22-7.75-29.55-.3-.42-.62-.82-.95-1.2-3.15-3.8-7.41-6.81-12.03-8.46-4.63-1.67-9.65-1.97-14.31-.32,3.13-11.01,1.67-23.54-5.13-32.73-2-2.72-4.48-5.08-7.28-6.98-5.15-3.52-11.36-5.48-17.49-5.21-1.83.05-3.65.32-5.43.8-7.19,1.93-13.23,7.59-16.02,14.4.02-.02.04-.05.05-.08Z"/>
            <path class="cls-6" d="m279.41,1086.98c-8.73,2.85-17.69,4.74-26.77,5.91-.65,8.22-1.5,16.42-2.62,24.59,1.51-.55,3.01-1.12,4.5-1.73,8.46-3.48,16.86-8.18,21.92-15.78,2.57-3.86,4.1-8.15,4.9-12.63l-1.93-.37Z"/>
            <path class="cls-6" d="m166.8,632.97c8.85,5.3,15.13,13.5,19.92,22.61.48-1.06,1-2.09,1.56-3.11-2.86-9.21-7.65-17.9-15.73-22.88-6.88-4.23-15.01-4.73-22.67-2.57-.68.19-1.36.42-2.04.66,6.48.1,12.89,1.64,18.97,5.28Z"/>
            <path class="cls-6" d="m276.47,1039.32l1.32-.17c-1.35-10.1-2.62-20.21-3.85-30.32-6.49.91-13.03,1.72-19.59,2.3.05,8.35.08,16.7.11,25.05.01,3.62,0,7.24-.02,10.86,7.32-2.66,14.66-5.24,22.04-7.73Z"/>
            <path class="cls-10" d="m267.85,954.32l-1.37.13c-4.12,2.91-8.36,5.64-12.69,8.22.3,16.15.45,32.31.55,48.46,6.56-.59,13.1-1.4,19.59-2.3-2.2-18.14-4.23-36.32-6.08-54.51Z"/>
            <path class="cls-10" d="m258.86,865.27c-2.64,1.74-5.37,3.28-8.16,4.67.45,13.52,1.02,27.04,1.56,40.56,3.49-.21,6.97-.48,10.45-.85l.92-.08c-1.28-14.79-2.45-29.59-3.5-44.38l-1.27.08Z"/>
            <path class="cls-10" d="m255.82,810.81c-3.78.38-7.55.79-11.32,1.21.25,2.89.57,5.78.94,8.68.72,5.64,1.58,11.26,2.39,16.88,3-.04,6-.2,8.99-.52l1.42-.1c-.53-8.73-1.02-17.48-1.47-26.2l-.95.05Z"/>
            <path class="cls-1" d="m133.65,812.04c-12.79-12.01-24.23-25.47-34.03-40.03-7.61-11.32-14.36-23.68-16.1-37.21s2.41-28.47,13.24-36.76,28.65-7.3,36.34,3.96c-10-16.14-14.97-36.84-7.39-54.25,7.57-17.41,30.67-28.11,46.83-18.15,10.01,6.17,14.98,18.04,17.47,29.53-2-11.26,6.36-22.98,17.41-25.95s23.43,2.19,30.22,11.39c6.79,9.2,8.25,21.73,5.12,32.73,9.79-3.45,21.12,1.64,27.29,9.98,6.17,8.34,7.96,19.19,7.74,29.56-.53,25.32-11.79,49.18-24.83,70.89"/>
            <path class="cls-19" d="m85.86,712.12c-2.92-2.26-4.15-6.3-3.17-9.83,1.04-3.76,4.6-6.04,8.41-6.05,2.16,0,4.13.74,5.83,2.05.14.11.31-.12.19-.24-2.81-2.72-7.58-2.82-10.87-.95-3.49,1.99-4.91,6.13-4.02,9.95.49,2.13,1.68,4.02,3.47,5.28.12.08.27-.11.16-.2h0Z"/>
            <path class="cls-19" d="m131.56,636.71c.68-2.6,1.28-5.23,1.9-7.84.31-1.29.61-2.59.92-3.89.26-1.09.57-2.28,1.44-3.06,1.84-1.63,5.22-.36,7.2.4,2.31.88,4.44,2.17,6.31,3.78.21.18.51-.12.3-.3-1.93-1.66-4.12-2.98-6.5-3.89-1.98-.75-4.84-1.78-6.89-.77-2.16,1.06-2.37,4.2-2.86,6.24-.73,3.07-1.48,6.15-2.14,9.24-.04.2.26.28.31.08h0Z"/>
            <path class="cls-19" d="m212.92,632.17c2.85-3.46,7.54-8.5,12.52-6.19,3.9,1.81,4.83,6.93,5.37,10.74.04.26.43.15.39-.11-.57-4.03-1.65-9.43-5.93-11.13-5.14-2.04-9.71,2.92-12.5,6.57-.06.08.08.2.15.11h0Z"/>
            <path class="cls-19" d="m256.85,678.13c1.38-1.86,2.97-3.55,4.79-4.99,1.67-1.31,4.71-3.9,6.48-1.49.65.89,1.01,2,1.34,3.04.36,1.15.64,2.33.83,3.53.39,2.54.35,5.13-.08,7.67-.04.26.35.37.39.11.48-2.79.48-5.65-.02-8.44-.25-1.37-.62-2.72-1.1-4.03-.36-.98-.79-2.03-1.6-2.72-1.85-1.57-4.33.44-5.85,1.57-2.1,1.56-3.93,3.46-5.4,5.62-.1.14.13.27.23.13h0Z"/>
            <path class="cls-1" d="m117.63,795.1c6.92,44.6,8.94,89.96,6,135-3.54,54.25-14.23,107.91-16.13,162.24-.14,3.91-.21,7.94,1.21,11.58,1.44,3.68,4.28,6.64,7.39,9.09,13.48,10.63,31.64,12.7,48.79,13.61,30.31,1.6,61.57.68,89.65-10.86,8.45-3.48,16.85-8.18,21.92-15.78,7.7-11.55,5.99-26.72,4.08-40.47-12.64-90.91-20.98-182.42-24.98-274.12"/>
          </g>
          <g>
            <path class="cls-4" d="m1793.75,823.25c11.34-16.52,20.68-34.4,27.74-53.16,4.41-11.71,7.98-24.17,6.64-36.61-.82-7.79-3.94-15.6-9.01-21.45-3.05-3.52-6.8-6.33-11.19-8.02-.91-.35-1.81-.63-2.75-.85-8.23-1.92-17.65.92-23.09,7-1.27,2.7-2.65,5.35-4.08,7.95.66-3.03,2.11-5.72,4.08-7.95,4.67-9.86,7.98-20.35,7.18-31.1-.61-8.03-4.2-16.12-9.79-21.76-3.97-3.99-8.92-6.76-14.58-7.41-.56-.07-1.13-.1-1.69-.14-10.93-.45-21.26,6.97-27.01,16.41-6.05,9.91-8.02,21.73-9.62,33.25-.59-14.93-2.81-32.62-16.07-39.55-4.29-2.25-9.22-2.86-14.01-2.14-4.88.71-9.64,2.82-13.43,5.99-1.22,1.01-2.35,2.13-3.36,3.31-5.42,6.12-8.42,14.25-9.25,22.43-1.46,14.29,3.45,29.12,13.17,39.69-9.58-9.27-22.83-16.95-35.74-13.63-3.01.78-5.79,2.13-8.26,3.92-4.77,3.45-8.45,8.52-10.68,14.18-1.27,3.12-2.07,6.41-2.39,9.72-1.17,12.41,3.33,24.69,9.34,35.62,5.87,10.66,13.26,20.49,21.83,29.15.63,95.61-6.95,191.27-22.62,285.58-1.67,10.07-2.65,22.34,5.44,28.56,3.26,2.51,7.42,3.45,11.48,4.16,17.02,2.96,34.43,2.7,51.72,2.42,30.32-.47,60.64-.96,90.96-1.43,12.02-.19,26.57-1.93,31.57-12.88,2.7-5.87,1.62-12.72.51-19.1-15.7-90.07-26.73-180.96-33.04-272.18Z"/>
            <path class="cls-7" d="m1819.32,700.33c.4,3.78.8,7.56,1.2,11.33l-1.39.37c-3.05-3.52-6.8-6.33-11.19-8.02-.91-.35-1.81-.63-2.75-.85l.02-.09c1.95-1.5,3.9-3.01,5.87-4.51,2.2-1.67,5.63-3.26,7.37-1.1.63.8.77,1.86.87,2.88Z"/>
            <path class="cls-7" d="m1778.44,650.3c.54,2.14,1.06,4.3,1.59,6.45l-.54.54c-3.97-3.99-8.92-6.76-14.58-7.41-.56-.07-1.13-.1-1.69-.14,1.52-1.93,3.08-3.94,5.23-5.18,2.18-1.25,5.11-1.53,7.11-.02,1.74,1.32,2.37,3.62,2.89,5.75Z"/>
            <path class="cls-7" d="m1696.38,656.91l.12.8c-4.88.71-9.64,2.82-13.43,5.99-1.22,1.01-2.35,2.13-3.36,3.31l-.17-.16c-.44-3.64-.28-7.37.47-10.96.33-1.59.91-3.31,2.32-4.11,1.46-.82,3.29-.35,4.88.24,3.24,1.24,6.34,2.88,9.18,4.88Z"/>
            <path class="cls-7" d="m1639.18,718.92l.45.51c-4.77,3.45-8.45,8.52-10.68,14.18l-.64-.26c-2.44-3.76-3.76-8.26-3.75-12.76,0-1.12.16-2.4,1.06-3.07.59-.44,1.36-.51,2.07-.54,3.9-.16,7.84.51,11.48,1.93Z"/>
            <path class="cls-15" d="m1793.75,823.25c11.34-16.52,20.68-34.4,27.74-53.16,4.41-11.71,7.98-24.17,6.64-36.61-.82-7.79-3.94-15.6-9.01-21.45-3.05-3.52-6.8-6.33-11.19-8.02-.91-.35-1.81-.63-2.75-.85-8.22-1.92-17.65.92-23.09,7-1.11,2.36-2.32,4.68-3.56,6.97.92-.5,1.86-.98,2.83-1.41,10.09-4.5,18.86-1.5,25.04,5.39,1.41.33,2.76.86,3.97,1.67,4.64,3.08,6.53,9.04,6.64,14.6.06,3.21-.43,6.48-1.47,9.52-.13,21.9-16.31,43.56-26.01,61.8-8.75,16.45-9.93,32.29-8.25,50.6,1.77,19.36,2.91,38.7,4.02,58.11,2.38,41.83,5.1,83.67,8.41,125.43,1.52,19.23,1.39,38.55,2.99,57.75.74,8.81,1.76,17.79,1.77,26.69,11.15-.53,23.34-2.93,27.83-12.76,2.7-5.87,1.62-12.72.51-19.1-15.7-90.07-26.73-180.96-33.04-272.18Z"/>
            <path class="cls-15" d="m1710.03,671.71c4.08,4.59,7.05,9.87,9.25,15.51,1.3-3.27,2.72-6.48,4.31-9.58-2.24-7.58-6.14-14.16-13.07-17.79-4.29-2.25-9.22-2.86-14.01-2.14-2.63.39-5.23,1.19-7.66,2.34,7.91,1.4,15.26,4.99,21.18,11.67Z"/>
            <path class="cls-15" d="m1789.27,679.05c-.61-8.03-4.2-16.12-9.79-21.76-3.97-3.99-8.92-6.76-14.58-7.41-.56-.07-1.13-.1-1.69-.14-6.43-.27-12.65,2.21-17.86,6.21,5.8-1.99,12.15-1.69,18.58,2.4,14.67,9.32,13.51,29.94,11.36,44.88-.91,6.32-2.27,12.52-3.82,18.67,2.14-1.7,4.38-3.26,6.78-4.61.73-2.69,2.05-5.11,3.84-7.14,4.67-9.86,7.98-20.35,7.18-31.1Z"/>
            <path class="cls-8" d="m1819.32,700.33c.4,3.78.8,7.56,1.2,11.33l-1.39.37c-3.05-3.52-6.8-6.33-11.19-8.02-.91-.35-1.81-.63-2.75-.85l.02-.09c1.95-1.5,3.9-3.01,5.87-4.51,2.2-1.67,5.63-3.26,7.37-1.1.63.8.77,1.86.87,2.88Z"/>
            <path class="cls-15" d="m1812.53,731.08c2.15,5.26,3.04,10.54,3.01,15.82,1.05-3.04,1.53-6.3,1.47-9.52-.1-5.56-2-11.52-6.64-14.6-1.21-.81-2.57-1.34-3.97-1.67,2.49,2.78,4.57,6.16,6.13,9.97Z"/>
            <path class="cls-8" d="m1778.44,650.3c.54,2.14,1.06,4.3,1.59,6.45l-.54.54c-3.97-3.99-8.92-6.76-14.58-7.41-.56-.07-1.13-.1-1.69-.14,1.52-1.93,3.08-3.94,5.23-5.18,2.18-1.25,5.11-1.53,7.11-.02,1.74,1.32,2.37,3.62,2.89,5.75Z"/>
            <path class="cls-8" d="m1688.84,660.05c2.43-1.15,5.02-1.95,7.66-2.34l-.12-.8c-2.84-2-5.94-3.64-9.18-4.88-1.59-.59-3.42-1.06-4.88-.24-1.41.8-1.99,2.53-2.32,4.11-.24,1.14-.4,2.31-.51,3.47,3.17-.07,6.3.14,9.36.68Z"/>
            <path class="cls-19" d="m1628.59,733.19c-1.25-2.11-2.26-4.36-2.88-6.74-.33-1.26-.56-2.55-.66-3.84-.09-1.1-.2-2.3.05-3.39.31-1.37,1.31-1.75,2.6-1.81,1.25-.06,2.51-.02,3.75.09,2.61.24,5.17.87,7.62,1.81.49.19.7-.59.22-.78-2.75-1.06-5.64-1.72-8.58-1.91-2.05-.14-5.27-.58-6.22,1.79-.42,1.04-.36,2.24-.31,3.34.07,1.37.26,2.74.56,4.08.62,2.75,1.71,5.37,3.3,7.69.24.35.79.04.57-.33h0Z"/>
            <path class="cls-19" d="m1679.7,666.86c-.02-.29.07-.65.06-.97-.01-.38-.04-.75-.06-1.13-.03-.65-.04-1.3-.03-1.94.01-1.35.09-2.7.26-4.04.25-2.08.5-5.35,2.49-6.58,2.15-1.32,5.33.41,7.32,1.33,1.08.5,2.14,1.05,3.17,1.64,1.11.64,2.15,1.46,3.3,2.02.32.16.68-.24.4-.52-1-.96-2.35-1.66-3.55-2.34-1.21-.68-2.46-1.3-3.73-1.86-2.14-.94-5.06-2.35-7.32-.97-2.07,1.27-2.44,4.19-2.76,6.37-.21,1.48-.34,2.97-.34,4.46,0,.76.02,1.51.07,2.27.03.43.07.86.12,1.29.05.39.21.62.28,1.01.03.18.32.14.31-.04h0Z"/>
            <path class="cls-19" d="m1763.3,650.01c2.66-3.05,6.37-7.66,11.03-5.71,2.09.87,2.94,3.08,3.48,5.12.66,2.47,1.22,4.97,1.82,7.45.12.51.91.29.79-.22-.69-2.8-1.25-5.68-2.14-8.43-.67-2.05-1.81-3.97-3.93-4.73-4.85-1.74-8.97,2.67-11.43,6.23-.15.22.19.49.37.29h0Z"/>
            <path class="cls-19" d="m1805.33,703.28c2.12-1.51,4.14-3.15,6.26-4.67,1.45-1.04,3.69-2.37,5.54-1.68,1.09.4,1.54,1.48,1.71,2.56.23,1.36.31,2.75.45,4.12.28,2.68.55,5.37.86,8.05.05.47.79.48.75,0-.3-3.08-.66-6.16-.99-9.25-.22-2.07-.08-5.12-2.38-6.11-1.87-.8-4.1.25-5.67,1.26-1.1.71-2.12,1.56-3.15,2.36-1.24.97-2.48,1.94-3.69,2.94-.22.18.07.57.31.4h0Z"/>
          </g>
          <g>
            <path class="cls-4" d="m632.85,857.54l.05-.85c4.51-.98,7.81-5.16,8.9-9.64,1.12-4.48.37-9.2-.77-13.66-2.04-8.1-5.61-16.15-12.01-21.54-1.9-1.6-4.09-2.96-6.52-3.54-4.62-1.08-9.64.96-12.82,4.46-3.19,3.52-4.72,8.31-5.04,13.05-.51,7.86,2.27,15.89,7.51,21.78,5.23,5.85,12.82,9.53,20.68,9.93Zm-52.45,82.75c-8.57-8.66-15.96-18.49-21.83-29.15-6.01-10.93-10.51-23.21-9.34-35.62.31-3.31,1.12-6.6,2.39-9.72,2.23-5.66,5.91-10.73,10.68-14.18,2.47-1.79,5.24-3.14,8.26-3.92,12.91-3.33,26.15,4.36,35.74,13.63-9.72-10.58-14.64-25.41-13.17-39.69.84-8.17,3.83-16.31,9.25-22.43,1.01-1.18,2.14-2.3,3.36-3.31,3.8-3.17,8.56-5.28,13.43-5.99,4.79-.71,9.72-.1,14.01,2.14,13.26,6.94,15.47,24.62,16.07,39.55,1.6-11.52,3.57-23.33,9.62-33.25,5.75-9.44,16.08-16.87,27.01-16.41.56.03,1.13.07,1.69.14,5.66.64,10.61,3.42,14.58,7.41,5.59,5.65,9.18,13.73,9.79,21.76.8,10.75-2.51,21.24-7.18,31.1-1.97,2.23-3.42,4.91-4.08,7.95,1.43-2.6,2.81-5.24,4.08-7.95,5.44-6.08,14.86-8.92,23.09-7,.94.23,1.85.51,2.75.85,4.39,1.69,8.14,4.5,11.19,8.02,5.07,5.85,8.19,13.66,9.01,21.45,1.34,12.44-2.23,24.9-6.64,36.61-7.06,18.77-16.4,36.64-27.74,53.16,6.31,91.22,17.34,182.11,33.04,272.18,1.12,6.38,2.2,13.23-.51,19.1-5,10.94-19.55,12.69-31.57,12.88-30.32.47-60.64.96-90.96,1.43-17.29.28-34.69.54-51.72-2.42-4.06-.71-8.22-1.66-11.48-4.16-8.09-6.22-7.11-18.49-5.44-28.56,15.67-94.3,23.24-189.97,22.62-285.58Zm152.43-52.59c4.81-4.58,6.97-11.48,6.85-18.14-.1-5.56-2-11.52-6.64-14.6-4.2-2.81-9.95-2.6-14.45-.28-4.51,2.3-7.86,6.43-10.16,10.93-2.39,4.65-3.78,10.02-2.81,15.16.98,5.12,4.72,9.93,9.81,11.13l.16-.37c5.72,2.28,12.72.45,17.23-3.83Zm-23.51,39.33c2.27-10.12-2.63-20.46-8.42-29.1-11.06-16.52-28.73-31.5-48.48-29.26-7.3.82-14.17,3.99-20.3,8.02-15.84,10.42-27.41,27.08-31.66,45.55-1.73,7.53-1.2,17.34,5.84,20.54,2.21.99,4.72,1.13,7.13.89,7.68-.73,14.67-4.95,20.4-10.12,5.96-5.37,12.69-12.46,20.4-10.79l-.03.12c5.12,4.64,8.45,11.01,13.63,15.61,6.45,5.75,15.79,8.24,24.15,6.08,8.36-2.16,15.44-9.11,17.34-17.55Zm-22.64-75.89c8.9-9.69,12.2-24.22,8.35-36.8-1.59-5.21-4.93-10.54-10.25-11.67-6.26-1.36-12.08,3.66-15.7,8.94-6.6,9.6-9.81,22.18-5.84,33.14,1.59,4.37,4.65,8.63,9.03,9.98,1.85,1.62,4.64,2.06,7.04,1.43,2.93-.75,5.33-2.79,7.37-5.02Zm-90.89,37.73c.23-5.4-2.04-10.7-5.42-14.9-1.5-1.86-3.22-3.55-5.24-4.83-6.38-4.01-15.33-3.07-20.98,1.92-5.65,4.97-7.77,13.43-5.52,20.61,2.25,7.2,8.57,12.84,15.86,14.67,2.11.54,4.3.77,6.43.35,4.03-.78,7.21-3.78,10.18-6.64l-.24-.28c3-2.74,4.77-6.83,4.95-10.91Z"/>
            <path class="cls-7" d="m741.98,832.52c.4,3.78.8,7.56,1.2,11.33l-1.39.37c-3.05-3.52-6.8-6.33-11.19-8.02-.91-.35-1.81-.63-2.75-.85l.02-.09c1.95-1.5,3.9-3.01,5.87-4.51,2.2-1.67,5.63-3.26,7.37-1.1.63.8.77,1.86.87,2.88Z"/>
            <path class="cls-11" d="m715.6,891.54l-.16.37c-5.09-1.2-8.83-6.01-9.81-11.13-.98-5.14.42-10.51,2.81-15.16,2.3-4.5,5.65-8.63,10.16-10.93,4.5-2.32,10.25-2.53,14.45.28,4.63,3.08,6.53,9.04,6.64,14.6.12,6.66-2.04,13.56-6.85,18.14-4.51,4.29-11.52,6.12-17.23,3.83Z"/>
            <path class="cls-11" d="m654.24,922.76c-7.72-1.67-14.45,5.42-20.4,10.79-5.73,5.18-12.72,9.39-20.4,10.12-2.4.24-4.91.1-7.13-.89-7.04-3.21-7.56-13.02-5.84-20.54,4.25-18.47,15.82-35.13,31.66-45.55,6.13-4.03,13-7.2,20.3-8.02,19.74-2.25,37.41,12.74,48.48,29.26,5.79,8.64,10.68,18.98,8.42,29.1-1.9,8.43-8.97,15.39-17.34,17.55-8.36,2.16-17.7-.33-24.15-6.08-5.18-4.6-8.5-10.98-13.63-15.61l.03-.12Z"/>
            <path class="cls-7" d="m701.1,782.49c.54,2.14,1.06,4.3,1.59,6.45l-.54.54c-3.97-3.99-8.92-6.76-14.58-7.41-.56-.07-1.13-.1-1.69-.14,1.52-1.93,3.08-3.94,5.23-5.18,2.18-1.25,5.11-1.53,7.11-.02,1.74,1.32,2.37,3.62,2.89,5.75Z"/>
            <path class="cls-11" d="m672.28,854.73c-4.37-1.36-7.44-5.61-9.03-9.98-3.97-10.96-.77-23.54,5.84-33.14,3.62-5.28,9.44-10.3,15.7-8.94,5.31,1.13,8.66,6.46,10.25,11.67,3.85,12.58.56,27.11-8.35,36.8-2.04,2.23-4.44,4.27-7.37,5.02-2.4.63-5.19.19-7.04-1.43Z"/>
            <path class="cls-11" d="m641.04,833.39c1.13,4.46,1.88,9.18.77,13.66-1.1,4.48-4.39,8.66-8.9,9.64l-.05.85c-7.86-.4-15.46-4.08-20.68-9.93-5.24-5.89-8.02-13.92-7.51-21.78.31-4.74,1.85-9.53,5.04-13.05,3.19-3.5,8.21-5.54,12.82-4.46,2.42.58,4.62,1.93,6.52,3.54,6.4,5.38,9.97,13.43,12.01,21.54Z"/>
            <path class="cls-7" d="m619.05,789.09l.12.8c-4.88.71-9.64,2.82-13.43,5.99-1.22,1.01-2.35,2.13-3.36,3.31l-.17-.16c-.44-3.64-.28-7.37.47-10.96.33-1.59.91-3.31,2.32-4.11,1.46-.82,3.29-.35,4.88.24,3.24,1.24,6.34,2.88,9.18,4.88Z"/>
            <path class="cls-11" d="m590.85,899.78l.24.28c-2.96,2.86-6.15,5.85-10.18,6.64-2.13.42-4.32.19-6.43-.35-7.28-1.83-13.61-7.48-15.86-14.67-2.25-7.18-.12-15.65,5.52-20.61,5.65-4.98,14.6-5.92,20.98-1.92,2.02,1.27,3.75,2.96,5.24,4.83,3.38,4.2,5.65,9.5,5.42,14.9-.17,4.08-1.95,8.17-4.95,10.91Z"/>
            <path class="cls-7" d="m561.84,851.11l.45.51c-4.77,3.45-8.45,8.52-10.68,14.18l-.64-.26c-2.44-3.76-3.76-8.26-3.75-12.76,0-1.12.16-2.4,1.06-3.07.59-.44,1.36-.51,2.07-.54,3.9-.16,7.84.51,11.48,1.93Z"/>
            <path class="cls-21" d="m716.42,955.43c11.34-16.52,20.68-34.4,27.74-53.16,4.41-11.71,7.98-24.17,6.64-36.61-.82-7.79-3.94-15.6-9.01-21.45-3.05-3.52-6.8-6.33-11.19-8.02-.91-.35-1.81-.63-2.75-.85-8.22-1.92-17.65.92-23.09,7-1.11,2.36-2.32,4.68-3.55,6.97.92-.5,1.86-.98,2.83-1.41,10.08-4.5,18.86-1.5,25.04,5.39,1.41.33,2.76.86,3.97,1.67,4.64,3.08,6.53,9.04,6.64,14.6.06,3.21-.43,6.48-1.47,9.52-.13,21.9-16.31,43.56-26.01,61.8-8.75,16.45-9.93,32.29-8.25,50.6,1.77,19.36,2.91,38.7,4.02,58.11,2.38,41.83,5.1,83.67,8.41,125.43,1.52,19.23,1.39,38.55,2.99,57.75.74,8.81,1.76,17.79,1.77,26.69,11.15-.53,23.34-2.93,27.83-12.76,2.7-5.87,1.62-12.72.51-19.1-15.7-90.07-26.73-180.96-33.04-272.18Z"/>
            <path class="cls-21" d="m632.69,803.9c4.08,4.59,7.05,9.87,9.25,15.51,1.3-3.27,2.72-6.48,4.31-9.58-2.24-7.58-6.14-14.16-13.07-17.79-4.29-2.25-9.22-2.86-14.01-2.14-2.63.39-5.23,1.19-7.66,2.34,7.91,1.4,15.26,4.99,21.18,11.67Z"/>
            <path class="cls-21" d="m711.94,811.24c-.61-8.03-4.2-16.12-9.79-21.76-3.97-3.99-8.92-6.76-14.58-7.41-.56-.07-1.13-.1-1.69-.14-6.43-.27-12.65,2.21-17.86,6.21,5.79-1.99,12.15-1.69,18.58,2.4,14.67,9.32,13.51,29.94,11.36,44.88-.91,6.32-2.27,12.52-3.82,18.67,2.14-1.7,4.38-3.26,6.78-4.61.73-2.69,2.05-5.11,3.84-7.14,4.67-9.86,7.98-20.35,7.18-31.1Z"/>
            <path class="cls-8" d="m741.98,832.52c.4,3.78.8,7.56,1.2,11.33l-1.39.37c-3.05-3.52-6.8-6.33-11.19-8.02-.91-.35-1.81-.63-2.75-.85l.02-.09c1.95-1.5,3.9-3.01,5.87-4.51,2.2-1.67,5.63-3.26,7.37-1.1.63.8.77,1.86.87,2.88Z"/>
            <path class="cls-12" d="m735.2,863.26c2.15,5.26,3.04,10.54,3.01,15.82,1.05-3.04,1.53-6.3,1.47-9.52-.1-5.56-2-11.52-6.64-14.6-1.21-.81-2.56-1.34-3.97-1.67,2.49,2.78,4.57,6.16,6.13,9.97Z"/>
            <path class="cls-8" d="m701.1,782.49c.54,2.14,1.06,4.3,1.59,6.45l-.54.54c-3.97-3.99-8.92-6.76-14.58-7.41-.56-.07-1.13-.1-1.69-.14,1.52-1.93,3.08-3.94,5.23-5.18,2.18-1.25,5.11-1.53,7.11-.02,1.74,1.32,2.37,3.62,2.89,5.75Z"/>
            <path class="cls-8" d="m611.51,792.23c2.43-1.15,5.02-1.95,7.66-2.34l-.12-.8c-2.84-2-5.94-3.64-9.18-4.88-1.59-.59-3.42-1.06-4.88-.24-1.41.8-1.99,2.53-2.32,4.11-.24,1.14-.4,2.31-.51,3.47,3.17-.07,6.3.14,9.36.68Z"/>
            <path class="cls-1" d="m601.88,957.79c-17.96-11.69-32.99-27.87-43.32-46.66-6-10.91-10.51-23.2-9.33-35.6s9.26-24.74,21.32-27.84c12.91-3.33,26.16,4.36,35.73,13.64-9.71-10.58-14.63-25.41-13.18-39.7.99-9.75,5.08-19.47,12.62-25.73,7.54-6.26,18.78-8.4,27.46-3.86,13.24,6.93,15.47,24.62,16.06,39.56,1.6-11.51,3.57-23.32,9.62-33.25,6.05-9.93,17.16-17.63,28.71-16.28,13.65,1.6,23.34,15.47,24.37,29.17,1.04,13.7-4.63,27-11.25,39.04,2.64-12.24,18.23-18.59,29.92-14.08,11.69,4.51,18.86,17,20.19,29.45,1.33,12.45-2.23,24.9-6.64,36.62-7.08,18.8-16.45,36.74-27.84,53.29"/>
            <path class="cls-1" d="m580.4,940.08c.65,95.68-6.93,191.41-22.62,285.79-1.67,10.07-2.65,22.33,5.45,28.55,3.26,2.5,7.42,3.46,11.47,4.16,17.03,2.97,34.44,2.7,51.72,2.43,30.32-.48,60.64-.96,90.96-1.44,12.03-.19,26.57-1.93,31.58-12.86,2.7-5.89,1.61-12.73.5-19.11-15.75-90.33-26.8-181.49-33.09-272.97"/>
            <path class="cls-19" d="m551.26,865.38c-1.25-2.11-2.26-4.36-2.88-6.74-.33-1.26-.56-2.55-.66-3.85-.09-1.1-.2-2.3.05-3.39.31-1.37,1.31-1.76,2.6-1.82s2.51-.02,3.75.09c2.61.24,5.17.87,7.62,1.81.48.19.69-.59.21-.77-2.75-1.06-5.64-1.72-8.58-1.91-2.05-.14-5.27-.58-6.22,1.79-.42,1.04-.36,2.24-.31,3.34.07,1.37.26,2.74.56,4.08.62,2.75,1.71,5.37,3.3,7.69.23.34.78.04.56-.33h0Z"/>
            <path class="cls-19" d="m602.36,799.04c-.02-.29.07-.65.06-.97-.01-.38-.04-.75-.06-1.13-.03-.65-.04-1.3-.03-1.94.01-1.35.09-2.7.25-4.04.25-2.08.5-5.35,2.5-6.58,2.15-1.32,5.33.41,7.33,1.33,1.08.5,2.14,1.05,3.17,1.64,1.11.64,2.15,1.46,3.3,2.02.32.16.67-.24.39-.51-1-.96-2.35-1.66-3.55-2.34s-2.46-1.3-3.73-1.86c-2.14-.93-5.06-2.35-7.31-.97-2.07,1.27-2.44,4.19-2.75,6.36-.21,1.48-.33,2.97-.34,4.46,0,.76.02,1.51.07,2.27.03.43.07.86.12,1.29.05.38.2.62.27,1.01.03.18.32.14.31-.04h0Z"/>
            <path class="cls-19" d="m685.96,782.19c2.65-3.06,6.38-7.66,11.03-5.71,2.09.88,2.94,3.09,3.49,5.12.66,2.47,1.22,4.97,1.82,7.45.12.51.91.29.78-.21-.69-2.8-1.25-5.68-2.14-8.43-.67-2.04-1.81-3.97-3.93-4.73-4.86-1.74-8.95,2.67-11.42,6.23-.15.22.2.49.37.29h0Z"/>
            <path class="cls-19" d="m727.99,835.47c2.11-1.52,4.14-3.15,6.25-4.67,1.45-1.04,3.69-2.37,5.54-1.68,1.1.41,1.54,1.49,1.72,2.56.23,1.36.31,2.75.45,4.12.28,2.68.55,5.37.86,8.05.05.46.79.48.74,0-.3-3.08-.66-6.16-.99-9.25-.22-2.07-.08-5.12-2.38-6.1-1.87-.8-4.1.25-5.67,1.26-2.4,1.54-4.63,3.49-6.84,5.3-.22.18.07.57.31.4h0Z"/>
          </g>
        </g>
      </g>
    </g>
  </g>
</svg>